<svg width="97" height="46" viewBox="0 0 97 46" fill="none" xmlns="http://www.w3.org/2000/svg">
<path d="M41 21.3125C40.6925 21.3125 40.4375 21.0575 40.4375 20.75V18.875C40.4375 16.7 42.2075 14.9375 44.375 14.9375H46.25C46.5575 14.9375 46.8125 15.1925 46.8125 15.5C46.8125 15.8075 46.5575 16.0625 46.25 16.0625H44.375C42.8225 16.0625 41.5625 17.3225 41.5625 18.875V20.75C41.5625 21.0575 41.3075 21.3125 41 21.3125Z" fill="#7F8A8C"/>
<path d="M56 21.3125C55.6925 21.3125 55.4375 21.0575 55.4375 20.75V18.875C55.4375 17.3225 54.1775 16.0625 52.625 16.0625H50.75C50.4425 16.0625 50.1875 15.8075 50.1875 15.5C50.1875 15.1925 50.4425 14.9375 50.75 14.9375H52.625C54.7925 14.9375 56.5625 16.7 56.5625 18.875V20.75C56.5625 21.0575 56.3075 21.3125 56 21.3125Z" fill="#7F8A8C"/>
<path d="M52.625 31.0625H51.5C51.1925 31.0625 50.9375 30.8075 50.9375 30.5C50.9375 30.1925 51.1925 29.9375 51.5 29.9375H52.625C54.1775 29.9375 55.4375 28.6775 55.4375 27.125V26C55.4375 25.6925 55.6925 25.4375 56 25.4375C56.3075 25.4375 56.5625 25.6925 56.5625 26V27.125C56.5625 29.3 54.7925 31.0625 52.625 31.0625Z" fill="#7F8A8C"/>
<path d="M46.25 31.0625H44.375C42.2075 31.0625 40.4375 29.3 40.4375 27.125V25.25C40.4375 24.9425 40.6925 24.6875 41 24.6875C41.3075 24.6875 41.5625 24.9425 41.5625 25.25V27.125C41.5625 28.6775 42.8225 29.9375 44.375 29.9375H46.25C46.5575 29.9375 46.8125 30.1925 46.8125 30.5C46.8125 30.8075 46.5575 31.0625 46.25 31.0625Z" fill="#7F8A8C"/>
<path d="M46.25 22.4375H44.75C43.6925 22.4375 43.0625 21.8075 43.0625 20.75V19.25C43.0625 18.1925 43.6925 17.5625 44.75 17.5625H46.25C47.3075 17.5625 47.9375 18.1925 47.9375 19.25V20.75C47.9375 21.8075 47.3075 22.4375 46.25 22.4375ZM44.75 18.6875C44.3075 18.6875 44.1875 18.8075 44.1875 19.25V20.75C44.1875 21.1925 44.3075 21.3125 44.75 21.3125H46.25C46.6925 21.3125 46.8125 21.1925 46.8125 20.75V19.25C46.8125 18.8075 46.6925 18.6875 46.25 18.6875H44.75Z" fill="#7F8A8C"/>
<path d="M52.25 22.4375H50.75C49.6925 22.4375 49.0625 21.8075 49.0625 20.75V19.25C49.0625 18.1925 49.6925 17.5625 50.75 17.5625H52.25C53.3075 17.5625 53.9375 18.1925 53.9375 19.25V20.75C53.9375 21.8075 53.3075 22.4375 52.25 22.4375ZM50.75 18.6875C50.3075 18.6875 50.1875 18.8075 50.1875 19.25V20.75C50.1875 21.1925 50.3075 21.3125 50.75 21.3125H52.25C52.6925 21.3125 52.8125 21.1925 52.8125 20.75V19.25C52.8125 18.8075 52.6925 18.6875 52.25 18.6875H50.75Z" fill="#7F8A8C"/>
<path d="M46.25 28.4375H44.75C43.6925 28.4375 43.0625 27.8075 43.0625 26.75V25.25C43.0625 24.1925 43.6925 23.5625 44.75 23.5625H46.25C47.3075 23.5625 47.9375 24.1925 47.9375 25.25V26.75C47.9375 27.8075 47.3075 28.4375 46.25 28.4375ZM44.75 24.6875C44.3075 24.6875 44.1875 24.8075 44.1875 25.25V26.75C44.1875 27.1925 44.3075 27.3125 44.75 27.3125H46.25C46.6925 27.3125 46.8125 27.1925 46.8125 26.75V25.25C46.8125 24.8075 46.6925 24.6875 46.25 24.6875H44.75Z" fill="#7F8A8C"/>
<path d="M52.25 28.4375H50.75C49.6925 28.4375 49.0625 27.8075 49.0625 26.75V25.25C49.0625 24.1925 49.6925 23.5625 50.75 23.5625H52.25C53.3075 23.5625 53.9375 24.1925 53.9375 25.25V26.75C53.9375 27.8075 53.3075 28.4375 52.25 28.4375ZM50.75 24.6875C50.3075 24.6875 50.1875 24.8075 50.1875 25.25V26.75C50.1875 27.1925 50.3075 27.3125 50.75 27.3125H52.25C52.6925 27.3125 52.8125 27.1925 52.8125 26.75V25.25C52.8125 24.8075 52.6925 24.6875 52.25 24.6875H50.75Z" fill="#7F8A8C"/>
</svg>
