<svg width="19" height="18" viewBox="0 0 19 18" fill="none" xmlns="http://www.w3.org/2000/svg">
<path d="M14.75 6.5625C13.1975 6.5625 11.9375 5.3025 11.9375 3.75C11.9375 2.1975 13.1975 0.9375 14.75 0.9375C16.3025 0.9375 17.5625 2.1975 17.5625 3.75C17.5625 5.3025 16.3025 6.5625 14.75 6.5625ZM14.75 2.0625C13.82 2.0625 13.0625 2.82 13.0625 3.75C13.0625 4.68 13.82 5.4375 14.75 5.4375C15.68 5.4375 16.4375 4.68 16.4375 3.75C16.4375 2.82 15.68 2.0625 14.75 2.0625Z" fill="#C10104"/>
<path d="M9.5 17.0625C5.0525 17.0625 1.4375 13.4475 1.4375 9C1.4375 4.5525 5.0525 0.9375 9.5 0.9375C10.0475 0.9375 10.595 0.99 11.1275 1.1025C11.435 1.1625 11.63 1.4625 11.5625 1.77C11.5025 2.0775 11.2025 2.2725 10.9025 2.205C10.445 2.1075 9.9725 2.0625 9.5 2.0625C5.675 2.0625 2.5625 5.175 2.5625 9C2.5625 12.825 5.675 15.9375 9.5 15.9375C13.325 15.9375 16.4375 12.825 16.4375 9C16.4375 8.535 16.3925 8.07 16.3025 7.62C16.2425 7.3125 16.4375 7.02 16.745 6.96C17.0525 6.8925 17.345 7.095 17.405 7.4025C17.51 7.9275 17.5625 8.4675 17.5625 9.0075C17.5625 13.4475 13.9475 17.0625 9.5 17.0625Z" fill="#7F8A8C"/>
</svg>
