<svg width="97" height="46" viewBox="0 0 97 46" fill="none" xmlns="http://www.w3.org/2000/svg">
<mask id="path-1-inside-1_948_24" fill="white">
<path d="M0 0H97V46H0V0Z"/>
</mask>
<path d="M0 0H97V46H0V0Z" fill="white" fill-opacity="0.09"/>
<path d="M93 0V46H101V0H93Z" fill="#C10104" mask="url(#path-1-inside-1_948_24)"/>
<path d="M42.5 19.25C42.5 18.5511 42.5 18.2016 42.6142 17.926C42.7664 17.5584 43.0584 17.2664 43.426 17.1142C43.7016 17 44.0511 17 44.75 17C45.4489 17 45.7984 17 46.074 17.1142C46.4416 17.2664 46.7336 17.5584 46.8858 17.926C47 18.2016 47 18.5511 47 19.25C47 19.9489 47 20.2984 46.8858 20.574C46.7336 20.9416 46.4416 21.2336 46.074 21.3858C45.7984 21.5 45.4489 21.5 44.75 21.5C44.0511 21.5 43.7016 21.5 43.426 21.3858C43.0584 21.2336 42.7664 20.9416 42.6142 20.574C42.5 20.2984 42.5 19.9489 42.5 19.25Z" fill="#C10104"/>
<path d="M50 19.25C50 18.5511 50 18.2016 50.1142 17.926C50.2664 17.5584 50.5584 17.2664 50.926 17.1142C51.2016 17 51.5511 17 52.25 17C52.9489 17 53.2984 17 53.574 17.1142C53.9416 17.2664 54.2336 17.5584 54.3858 17.926C54.5 18.2016 54.5 18.5511 54.5 19.25C54.5 19.9489 54.5 20.2984 54.3858 20.574C54.2336 20.9416 53.9416 21.2336 53.574 21.3858C53.2984 21.5 52.9489 21.5 52.25 21.5C51.5511 21.5 51.2016 21.5 50.926 21.3858C50.5584 21.2336 50.2664 20.9416 50.1142 20.574C50 20.2984 50 19.9489 50 19.25Z" fill="#C10104"/>
<path d="M42.5 26.75C42.5 26.0511 42.5 25.7016 42.6142 25.426C42.7664 25.0584 43.0584 24.7664 43.426 24.6142C43.7016 24.5 44.0511 24.5 44.75 24.5C45.4489 24.5 45.7984 24.5 46.074 24.6142C46.4416 24.7664 46.7336 25.0584 46.8858 25.426C47 25.7016 47 26.0511 47 26.75C47 27.4489 47 27.7984 46.8858 28.074C46.7336 28.4416 46.4416 28.7336 46.074 28.8858C45.7984 29 45.4489 29 44.75 29C44.0511 29 43.7016 29 43.426 28.8858C43.0584 28.7336 42.7664 28.4416 42.6142 28.074C42.5 27.7984 42.5 27.4489 42.5 26.75Z" fill="#C10104"/>
<path d="M50 26.75C50 26.0511 50 25.7016 50.1142 25.426C50.2664 25.0584 50.5584 24.7664 50.926 24.6142C51.2016 24.5 51.5511 24.5 52.25 24.5C52.9489 24.5 53.2984 24.5 53.574 24.6142C53.9416 24.7664 54.2336 25.0584 54.3858 25.426C54.5 25.7016 54.5 26.0511 54.5 26.75C54.5 27.4489 54.5 27.7984 54.3858 28.074C54.2336 28.4416 53.9416 28.7336 53.574 28.8858C53.2984 29 52.9489 29 52.25 29C51.5511 29 51.2016 29 50.926 28.8858C50.5584 28.7336 50.2664 28.4416 50.1142 28.074C50 27.7984 50 27.4489 50 26.75Z" fill="#C10104"/>
</svg>
