<svg width="97" height="46" viewBox="0 0 97 46" fill="none" xmlns="http://www.w3.org/2000/svg">
<path d="M48.5 25.8125C46.9475 25.8125 45.6875 24.5525 45.6875 23C45.6875 21.4475 46.9475 20.1875 48.5 20.1875C50.0525 20.1875 51.3125 21.4475 51.3125 23C51.3125 24.5525 50.0525 25.8125 48.5 25.8125ZM48.5 21.3125C47.57 21.3125 46.8125 22.07 46.8125 23C46.8125 23.93 47.57 24.6875 48.5 24.6875C49.43 24.6875 50.1875 23.93 50.1875 23C50.1875 22.07 49.43 21.3125 48.5 21.3125Z" fill="#7F8A8C"/>
<path d="M50.9075 30.6427C50.75 30.6427 50.5925 30.6202 50.435 30.5827C49.97 30.4552 49.58 30.1627 49.3325 29.7502L49.2425 29.6002C48.8 28.8352 48.1925 28.8352 47.75 29.6002L47.6675 29.7427C47.42 30.1627 47.03 30.4627 46.565 30.5827C46.0925 30.7102 45.605 30.6427 45.1925 30.3952L43.9025 29.6527C43.445 29.3902 43.115 28.9627 42.9725 28.4452C42.8375 27.9277 42.905 27.3952 43.1675 26.9377C43.385 26.5552 43.445 26.2102 43.3175 25.9927C43.19 25.7752 42.8675 25.6477 42.425 25.6477C41.33 25.6477 40.4375 24.7552 40.4375 23.6602V22.3402C40.4375 21.2452 41.33 20.3527 42.425 20.3527C42.8675 20.3527 43.19 20.2252 43.3175 20.0077C43.445 19.7902 43.3925 19.4452 43.1675 19.0627C42.905 18.6052 42.8375 18.0652 42.9725 17.5552C43.1075 17.0377 43.4375 16.6102 43.9025 16.3477L45.2 15.6052C46.0475 15.1027 47.165 15.3952 47.675 16.2577L47.765 16.4077C48.2075 17.1727 48.815 17.1727 49.2575 16.4077L49.34 16.2652C49.85 15.3952 50.9675 15.1027 51.8225 15.6127L53.1125 16.3552C53.57 16.6177 53.9 17.0452 54.0425 17.5627C54.1775 18.0802 54.11 18.6127 53.8475 19.0702C53.63 19.4527 53.57 19.7977 53.6975 20.0152C53.825 20.2327 54.1475 20.3602 54.59 20.3602C55.685 20.3602 56.5775 21.2527 56.5775 22.3477V23.6677C56.5775 24.7627 55.685 25.6552 54.59 25.6552C54.1475 25.6552 53.825 25.7827 53.6975 26.0002C53.57 26.2177 53.6225 26.5627 53.8475 26.9452C54.11 27.4027 54.185 27.9427 54.0425 28.4527C53.9075 28.9702 53.5775 29.3977 53.1125 29.6602L51.815 30.4027C51.53 30.5602 51.2225 30.6427 50.9075 30.6427ZM48.5 27.8677C49.1675 27.8677 49.79 28.2877 50.2175 29.0302L50.3 29.1727C50.39 29.3302 50.54 29.4427 50.72 29.4877C50.9 29.5327 51.08 29.5102 51.23 29.4202L52.5275 28.6702C52.7225 28.5577 52.8725 28.3702 52.9325 28.1452C52.9925 27.9202 52.9625 27.6877 52.85 27.4927C52.4225 26.7577 52.37 26.0002 52.7 25.4227C53.03 24.8452 53.7125 24.5152 54.5675 24.5152C55.0475 24.5152 55.43 24.1327 55.43 23.6527V22.3327C55.43 21.8602 55.0475 21.4702 54.5675 21.4702C53.7125 21.4702 53.03 21.1402 52.7 20.5627C52.37 19.9852 52.4225 19.2277 52.85 18.4927C52.9625 18.2977 52.9925 18.0652 52.9325 17.8402C52.8725 17.6152 52.73 17.4352 52.535 17.3152L51.2375 16.5727C50.915 16.3777 50.4875 16.4902 50.2925 16.8202L50.21 16.9627C49.7825 17.7052 49.16 18.1252 48.4925 18.1252C47.825 18.1252 47.2025 17.7052 46.775 16.9627L46.6925 16.8127C46.505 16.4977 46.085 16.3852 45.7625 16.5727L44.465 17.3227C44.27 17.4352 44.12 17.6227 44.06 17.8477C44 18.0727 44.03 18.3052 44.1425 18.5002C44.57 19.2352 44.6225 19.9927 44.2925 20.5702C43.9625 21.1477 43.28 21.4777 42.425 21.4777C41.945 21.4777 41.5625 21.8602 41.5625 22.3402V23.6602C41.5625 24.1327 41.945 24.5227 42.425 24.5227C43.28 24.5227 43.9625 24.8527 44.2925 25.4302C44.6225 26.0077 44.57 26.7652 44.1425 27.5002C44.03 27.6952 44 27.9277 44.06 28.1527C44.12 28.3777 44.2625 28.5577 44.4575 28.6777L45.755 29.4202C45.9125 29.5177 46.1 29.5402 46.2725 29.4952C46.4525 29.4502 46.6025 29.3302 46.7 29.1727L46.7825 29.0302C47.21 28.2952 47.8325 27.8677 48.5 27.8677Z" fill="#7F8A8C"/>
</svg>
