<svg width="97" height="46" viewBox="0 0 97 46" fill="none" xmlns="http://www.w3.org/2000/svg">
<path d="M48.5 23.1877C48.17 23.1877 47.84 23.1052 47.54 22.9477L42.6575 20.3152C42.215 20.0752 41.9375 19.6027 41.9375 19.0777C41.9375 18.5527 42.215 18.0802 42.6575 17.8402L47.54 15.2077C48.14 14.8852 48.86 14.8852 49.4525 15.2077L54.335 17.8402C54.7775 18.0802 55.055 18.5527 55.055 19.0777C55.055 19.6027 54.7775 20.0752 54.335 20.3152L49.4525 22.9477C49.16 23.1127 48.83 23.1877 48.5 23.1877ZM48.5 16.0852C48.3575 16.0852 48.2075 16.1227 48.0725 16.1977L43.1975 18.8227C43.07 18.8902 43.0625 19.0327 43.0625 19.0777C43.0625 19.1227 43.07 19.2652 43.1975 19.3252L48.08 21.9577C48.35 22.1002 48.6575 22.1002 48.9275 21.9577L53.81 19.3252C53.93 19.2577 53.945 19.1152 53.945 19.0777C53.945 19.0327 53.9375 18.8902 53.81 18.8302L48.9275 16.1977C48.7925 16.1227 48.6425 16.0852 48.5 16.0852Z" fill="#7F8A8C"/>
<path d="M46.835 31.0398C46.625 31.0398 46.4075 30.9873 46.2125 30.8898L41.6675 28.6248C40.91 28.2423 40.4375 27.4773 40.4375 26.6298V22.3398C40.4375 21.8523 40.685 21.4098 41.0975 21.1548C41.5175 20.8998 42.02 20.8773 42.455 21.0948L47 23.3598C47.7575 23.7423 48.23 24.4998 48.23 25.3548V29.6448C48.23 30.1323 47.9825 30.5748 47.57 30.8298C47.345 30.9723 47.09 31.0398 46.835 31.0398ZM41.8325 22.0698C41.7725 22.0698 41.72 22.0923 41.69 22.1073C41.645 22.1373 41.5625 22.2048 41.5625 22.3398V26.6298C41.5625 27.0498 41.795 27.4323 42.17 27.6198L46.7075 29.8923C46.8275 29.9523 46.925 29.9073 46.97 29.8848C47.015 29.8548 47.0975 29.7873 47.0975 29.6523V25.3623C47.0975 24.9423 46.865 24.5598 46.49 24.3723L41.9525 22.0998C41.9075 22.0773 41.87 22.0698 41.8325 22.0698Z" fill="#7F8A8C"/>
<path d="M50.1645 31.04C49.9095 31.04 49.6545 30.9725 49.4295 30.83C49.017 30.575 48.7695 30.1325 48.7695 29.645V25.355C48.7695 24.5075 49.242 23.7425 49.9995 23.36L54.537 21.0875C54.972 20.87 55.482 20.8925 55.8945 21.1475C56.307 21.4025 56.5545 21.845 56.5545 22.3325V26.6225C56.5545 27.47 56.082 28.235 55.3245 28.6175L50.787 30.89C50.592 30.995 50.3745 31.04 50.1645 31.04ZM55.167 22.07C55.1295 22.07 55.092 22.0775 55.047 22.1L50.5095 24.3725C50.1345 24.56 49.902 24.935 49.902 25.3625V29.6525C49.902 29.7875 49.9845 29.855 50.0295 29.885C50.0745 29.915 50.172 29.9525 50.292 29.8925L54.8295 27.62C55.2045 27.4325 55.437 27.05 55.437 26.63V22.34C55.437 22.205 55.3545 22.1375 55.3095 22.1075C55.2795 22.0925 55.227 22.07 55.167 22.07Z" fill="#7F8A8C"/>
</svg>
