<svg width="17" height="15" viewBox="0 0 17 15" fill="none" xmlns="http://www.w3.org/2000/svg">
<rect x="13.2139" y="0.185547" width="3.10233" height="3.10233" fill="#C10104"/>
<path d="M12.512 6.6431V11.7045C12.512 12.2893 12.9354 12.3095 13.1169 12.3095C13.3791 12.3095 13.8025 12.2893 14.0243 12.249V14.205C13.4799 14.3058 12.9959 14.447 12.0482 14.447C10.2333 14.447 10.0317 13.4791 9.951 13.0758C9.40654 13.6001 8.05548 14.5478 4.92988 14.5478C2.1471 14.5478 0.574219 13.2976 0.574219 11.2004C0.574219 8.25631 3.59899 7.99416 5.37352 7.83284C9.36621 7.44971 9.78967 7.30855 9.78967 6.48178C9.78967 5.25171 8.37812 4.94923 6.76491 4.94923C4.92988 4.94923 3.94179 5.53402 3.84097 6.72376H1.11868C1.52198 3.92081 3.59899 3.05371 6.76491 3.05371C12.3506 3.05371 12.512 5.25171 12.512 6.6431ZM9.72918 9.84935V8.82093C8.92258 9.16374 8.05548 9.26457 6.07929 9.48638C3.98212 9.72836 3.47799 10.1922 3.47799 11.0996C3.47799 12.5111 4.76856 12.7733 5.71632 12.7733C7.20854 12.7733 9.72918 12.2087 9.72918 9.84935Z" fill="white"/>
</svg>
