<svg width="97" height="203" viewBox="0 0 97 203" fill="none" xmlns="http://www.w3.org/2000/svg">
<path d="M29.27 11V3.08H30.4635L33.2025 8.69L35.9415 3.08H37.135V11H35.8975V5.9235L33.4665 11H32.9385L30.513 5.9235V11H29.27ZM41.3202 11V3.08H46.4352V4.323H42.6457V6.2755H45.7752V7.5185H42.6457V9.757H46.4352V11H41.3202ZM50.3947 11V3.08H51.7367L55.4107 8.6625V3.08H56.7527V11H55.4107L51.7367 5.4175V11H50.3947ZM64.1202 11.165C63.4896 11.165 62.9341 11.0367 62.4537 10.78C61.9771 10.5233 61.6031 10.1622 61.3317 9.6965C61.0641 9.23083 60.9302 8.6845 60.9302 8.0575V3.091L62.2722 3.08V8.0245C62.2722 8.3215 62.3217 8.58733 62.4207 8.822C62.5234 9.05667 62.6609 9.2565 62.8332 9.4215C63.0056 9.58283 63.2036 9.70567 63.4272 9.79C63.6509 9.87433 63.8819 9.9165 64.1202 9.9165C64.3659 9.9165 64.5987 9.87433 64.8187 9.79C65.0424 9.702 65.2404 9.57733 65.4127 9.416C65.5851 9.251 65.7207 9.05117 65.8197 8.8165C65.9187 8.58183 65.9682 8.31783 65.9682 8.0245V3.08H67.3102V8.0575C67.3102 8.6845 67.1746 9.23083 66.9032 9.6965C66.6356 10.1622 66.2616 10.5233 65.7812 10.78C65.3046 11.0367 64.7509 11.165 64.1202 11.165Z" fill="#7F8A8C"/>
<mask id="path-2-inside-1_948_20" fill="white">
<path d="M0 37H97V83H0V37Z"/>
</mask>
<path d="M0 37H97V83H0V37Z" fill="white" fill-opacity="0.09"/>
<path d="M93 37V83H101V37H93Z" fill="#C10104" mask="url(#path-2-inside-1_948_20)"/>
<path d="M42.5 56.25C42.5 55.5511 42.5 55.2016 42.6142 54.926C42.7664 54.5584 43.0584 54.2664 43.426 54.1142C43.7016 54 44.0511 54 44.75 54C45.4489 54 45.7984 54 46.074 54.1142C46.4416 54.2664 46.7336 54.5584 46.8858 54.926C47 55.2016 47 55.5511 47 56.25C47 56.9489 47 57.2984 46.8858 57.574C46.7336 57.9416 46.4416 58.2336 46.074 58.3858C45.7984 58.5 45.4489 58.5 44.75 58.5C44.0511 58.5 43.7016 58.5 43.426 58.3858C43.0584 58.2336 42.7664 57.9416 42.6142 57.574C42.5 57.2984 42.5 56.9489 42.5 56.25Z" fill="#C10104"/>
<path d="M50 56.25C50 55.5511 50 55.2016 50.1142 54.926C50.2664 54.5584 50.5584 54.2664 50.926 54.1142C51.2016 54 51.5511 54 52.25 54C52.9489 54 53.2984 54 53.574 54.1142C53.9416 54.2664 54.2336 54.5584 54.3858 54.926C54.5 55.2016 54.5 55.5511 54.5 56.25C54.5 56.9489 54.5 57.2984 54.3858 57.574C54.2336 57.9416 53.9416 58.2336 53.574 58.3858C53.2984 58.5 52.9489 58.5 52.25 58.5C51.5511 58.5 51.2016 58.5 50.926 58.3858C50.5584 58.2336 50.2664 57.9416 50.1142 57.574C50 57.2984 50 56.9489 50 56.25Z" fill="#C10104"/>
<path d="M42.5 63.75C42.5 63.0511 42.5 62.7016 42.6142 62.426C42.7664 62.0584 43.0584 61.7664 43.426 61.6142C43.7016 61.5 44.0511 61.5 44.75 61.5C45.4489 61.5 45.7984 61.5 46.074 61.6142C46.4416 61.7664 46.7336 62.0584 46.8858 62.426C47 62.7016 47 63.0511 47 63.75C47 64.4489 47 64.7984 46.8858 65.074C46.7336 65.4416 46.4416 65.7336 46.074 65.8858C45.7984 66 45.4489 66 44.75 66C44.0511 66 43.7016 66 43.426 65.8858C43.0584 65.7336 42.7664 65.4416 42.6142 65.074C42.5 64.7984 42.5 64.4489 42.5 63.75Z" fill="#C10104"/>
<path d="M50 63.75C50 63.0511 50 62.7016 50.1142 62.426C50.2664 62.0584 50.5584 61.7664 50.926 61.6142C51.2016 61.5 51.5511 61.5 52.25 61.5C52.9489 61.5 53.2984 61.5 53.574 61.6142C53.9416 61.7664 54.2336 62.0584 54.3858 62.426C54.5 62.7016 54.5 63.0511 54.5 63.75C54.5 64.4489 54.5 64.7984 54.3858 65.074C54.2336 65.4416 53.9416 65.7336 53.574 65.8858C53.2984 66 52.9489 66 52.25 66C51.5511 66 51.2016 66 50.926 65.8858C50.5584 65.7336 50.2664 65.4416 50.1142 65.074C50 64.7984 50 64.4489 50 63.75Z" fill="#C10104"/>
<path d="M48.5 120.188C48.17 120.188 47.84 120.105 47.54 119.948L42.6575 117.315C42.215 117.075 41.9375 116.603 41.9375 116.078C41.9375 115.553 42.215 115.08 42.6575 114.84L47.54 112.208C48.14 111.885 48.86 111.885 49.4525 112.208L54.335 114.84C54.7775 115.08 55.055 115.553 55.055 116.078C55.055 116.603 54.7775 117.075 54.335 117.315L49.4525 119.948C49.16 120.113 48.83 120.188 48.5 120.188ZM48.5 113.085C48.3575 113.085 48.2075 113.123 48.0725 113.198L43.1975 115.823C43.07 115.89 43.0625 116.033 43.0625 116.078C43.0625 116.123 43.07 116.265 43.1975 116.325L48.08 118.958C48.35 119.1 48.6575 119.1 48.9275 118.958L53.81 116.325C53.93 116.258 53.945 116.115 53.945 116.078C53.945 116.033 53.9375 115.89 53.81 115.83L48.9275 113.198C48.7925 113.123 48.6425 113.085 48.5 113.085Z" fill="#7F8A8C"/>
<path d="M46.835 128.04C46.625 128.04 46.4075 127.987 46.2125 127.89L41.6675 125.625C40.91 125.242 40.4375 124.477 40.4375 123.63V119.34C40.4375 118.852 40.685 118.41 41.0975 118.155C41.5175 117.9 42.02 117.877 42.455 118.095L47 120.36C47.7575 120.742 48.23 121.5 48.23 122.355V126.645C48.23 127.132 47.9825 127.575 47.57 127.83C47.345 127.972 47.09 128.04 46.835 128.04ZM41.8325 119.07C41.7725 119.07 41.72 119.092 41.69 119.107C41.645 119.137 41.5625 119.205 41.5625 119.34V123.63C41.5625 124.05 41.795 124.432 42.17 124.62L46.7075 126.892C46.8275 126.952 46.925 126.907 46.97 126.885C47.015 126.855 47.0975 126.787 47.0975 126.652V122.362C47.0975 121.942 46.865 121.56 46.49 121.372L41.9525 119.1C41.9075 119.077 41.87 119.07 41.8325 119.07Z" fill="#7F8A8C"/>
<path d="M50.1645 128.04C49.9095 128.04 49.6545 127.973 49.4295 127.83C49.017 127.575 48.7695 127.133 48.7695 126.645V122.355C48.7695 121.508 49.242 120.743 49.9995 120.36L54.537 118.088C54.972 117.87 55.482 117.893 55.8945 118.148C56.307 118.403 56.5545 118.845 56.5545 119.333V123.623C56.5545 124.47 56.082 125.235 55.3245 125.618L50.787 127.89C50.592 127.995 50.3745 128.04 50.1645 128.04ZM55.167 119.07C55.1295 119.07 55.092 119.078 55.047 119.1L50.5095 121.373C50.1345 121.56 49.902 121.935 49.902 122.363V126.653C49.902 126.788 49.9845 126.855 50.0295 126.885C50.0745 126.915 50.172 126.953 50.292 126.893L54.8295 124.62C55.2045 124.433 55.437 124.05 55.437 123.63V119.34C55.437 119.205 55.3545 119.138 55.3095 119.108C55.2795 119.093 55.227 119.07 55.167 119.07Z" fill="#7F8A8C"/>
<path d="M41 178.312C40.6925 178.312 40.4375 178.057 40.4375 177.75V175.875C40.4375 173.7 42.2075 171.938 44.375 171.938H46.25C46.5575 171.938 46.8125 172.192 46.8125 172.5C46.8125 172.808 46.5575 173.062 46.25 173.062H44.375C42.8225 173.062 41.5625 174.322 41.5625 175.875V177.75C41.5625 178.057 41.3075 178.312 41 178.312Z" fill="#7F8A8C"/>
<path d="M56 178.312C55.6925 178.312 55.4375 178.057 55.4375 177.75V175.875C55.4375 174.322 54.1775 173.062 52.625 173.062H50.75C50.4425 173.062 50.1875 172.808 50.1875 172.5C50.1875 172.192 50.4425 171.938 50.75 171.938H52.625C54.7925 171.938 56.5625 173.7 56.5625 175.875V177.75C56.5625 178.057 56.3075 178.312 56 178.312Z" fill="#7F8A8C"/>
<path d="M52.625 188.062H51.5C51.1925 188.062 50.9375 187.807 50.9375 187.5C50.9375 187.193 51.1925 186.938 51.5 186.938H52.625C54.1775 186.938 55.4375 185.678 55.4375 184.125V183C55.4375 182.692 55.6925 182.438 56 182.438C56.3075 182.438 56.5625 182.692 56.5625 183V184.125C56.5625 186.3 54.7925 188.062 52.625 188.062Z" fill="#7F8A8C"/>
<path d="M46.25 188.062H44.375C42.2075 188.062 40.4375 186.3 40.4375 184.125V182.25C40.4375 181.942 40.6925 181.688 41 181.688C41.3075 181.688 41.5625 181.942 41.5625 182.25V184.125C41.5625 185.678 42.8225 186.938 44.375 186.938H46.25C46.5575 186.938 46.8125 187.193 46.8125 187.5C46.8125 187.807 46.5575 188.062 46.25 188.062Z" fill="#7F8A8C"/>
<path d="M46.25 179.438H44.75C43.6925 179.438 43.0625 178.807 43.0625 177.75V176.25C43.0625 175.192 43.6925 174.562 44.75 174.562H46.25C47.3075 174.562 47.9375 175.192 47.9375 176.25V177.75C47.9375 178.807 47.3075 179.438 46.25 179.438ZM44.75 175.688C44.3075 175.688 44.1875 175.808 44.1875 176.25V177.75C44.1875 178.192 44.3075 178.312 44.75 178.312H46.25C46.6925 178.312 46.8125 178.192 46.8125 177.75V176.25C46.8125 175.808 46.6925 175.688 46.25 175.688H44.75Z" fill="#7F8A8C"/>
<path d="M52.25 179.438H50.75C49.6925 179.438 49.0625 178.807 49.0625 177.75V176.25C49.0625 175.192 49.6925 174.562 50.75 174.562H52.25C53.3075 174.562 53.9375 175.192 53.9375 176.25V177.75C53.9375 178.807 53.3075 179.438 52.25 179.438ZM50.75 175.688C50.3075 175.688 50.1875 175.808 50.1875 176.25V177.75C50.1875 178.192 50.3075 178.312 50.75 178.312H52.25C52.6925 178.312 52.8125 178.192 52.8125 177.75V176.25C52.8125 175.808 52.6925 175.688 52.25 175.688H50.75Z" fill="#7F8A8C"/>
<path d="M46.25 185.438H44.75C43.6925 185.438 43.0625 184.807 43.0625 183.75V182.25C43.0625 181.192 43.6925 180.562 44.75 180.562H46.25C47.3075 180.562 47.9375 181.192 47.9375 182.25V183.75C47.9375 184.807 47.3075 185.438 46.25 185.438ZM44.75 181.688C44.3075 181.688 44.1875 181.808 44.1875 182.25V183.75C44.1875 184.192 44.3075 184.312 44.75 184.312H46.25C46.6925 184.312 46.8125 184.192 46.8125 183.75V182.25C46.8125 181.808 46.6925 181.688 46.25 181.688H44.75Z" fill="#7F8A8C"/>
<path d="M52.25 185.438H50.75C49.6925 185.438 49.0625 184.807 49.0625 183.75V182.25C49.0625 181.192 49.6925 180.562 50.75 180.562H52.25C53.3075 180.562 53.9375 181.192 53.9375 182.25V183.75C53.9375 184.807 53.3075 185.438 52.25 185.438ZM50.75 181.688C50.3075 181.688 50.1875 181.808 50.1875 182.25V183.75C50.1875 184.192 50.3075 184.312 50.75 184.312H52.25C52.6925 184.312 52.8125 184.192 52.8125 183.75V182.25C52.8125 181.808 52.6925 181.688 52.25 181.688H50.75Z" fill="#7F8A8C"/>
</svg>
