<svg width="97" height="13" viewBox="0 0 97 13" fill="none" xmlns="http://www.w3.org/2000/svg">
<path d="M29.27 11V3.08H30.4635L33.2025 8.69L35.9415 3.08H37.135V11H35.8975V5.9235L33.4665 11H32.9385L30.513 5.9235V11H29.27ZM44.6697 11.165C43.8777 11.165 43.1993 10.9927 42.6347 10.648C42.07 10.2997 41.6355 9.81567 41.3312 9.196C41.0305 8.57633 40.8802 7.85767 40.8802 7.04C40.8802 6.22233 41.0305 5.50367 41.3312 4.884C41.6355 4.26433 42.07 3.78217 42.6347 3.4375C43.1993 3.08917 43.8777 2.915 44.6697 2.915C45.4617 2.915 46.14 3.08917 46.7047 3.4375C47.273 3.78217 47.7075 4.26433 48.0082 4.884C48.3125 5.50367 48.4647 6.22233 48.4647 7.04C48.4647 7.85767 48.3125 8.57633 48.0082 9.196C47.7075 9.81567 47.273 10.2997 46.7047 10.648C46.14 10.9927 45.4617 11.165 44.6697 11.165ZM44.6697 9.9165C45.2013 9.92017 45.6432 9.80283 45.9952 9.5645C46.3508 9.32617 46.6167 8.99067 46.7927 8.558C46.9723 8.12533 47.0622 7.61933 47.0622 7.04C47.0622 6.46067 46.9723 5.95833 46.7927 5.533C46.6167 5.104 46.3508 4.77033 45.9952 4.532C45.6432 4.29367 45.2013 4.17083 44.6697 4.1635C44.138 4.15983 43.6962 4.27717 43.3442 4.5155C42.9922 4.75383 42.7263 5.08933 42.5467 5.522C42.3707 5.95467 42.2827 6.46067 42.2827 7.04C42.2827 7.61933 42.3707 8.1235 42.5467 8.5525C42.7227 8.97783 42.9867 9.30967 43.3387 9.548C43.6943 9.78633 44.138 9.90917 44.6697 9.9165ZM52.1994 11V3.08H55.4719C55.5489 3.08 55.6479 3.08367 55.7689 3.091C55.8899 3.09467 56.0017 3.10567 56.1044 3.124C56.5627 3.19367 56.9404 3.34583 57.2374 3.5805C57.5381 3.81517 57.7599 4.11217 57.9029 4.4715C58.0496 4.82717 58.1229 5.22317 58.1229 5.6595C58.1229 6.30483 57.9597 6.86033 57.6334 7.326C57.3071 7.788 56.8066 8.074 56.1319 8.184L55.5654 8.2335H53.5249V11H52.1994ZM56.7479 11L55.1859 7.777L56.5334 7.48L58.2494 11H56.7479ZM53.5249 6.996H55.4169C55.4902 6.996 55.5727 6.99233 55.6644 6.985C55.7561 6.97767 55.8404 6.963 55.9174 6.941C56.1374 6.886 56.3097 6.78883 56.4344 6.6495C56.5627 6.51017 56.6526 6.3525 56.7039 6.1765C56.7589 6.0005 56.7864 5.82817 56.7864 5.6595C56.7864 5.49083 56.7589 5.3185 56.7039 5.1425C56.6526 4.96283 56.5627 4.80333 56.4344 4.664C56.3097 4.52467 56.1374 4.4275 55.9174 4.3725C55.8404 4.3505 55.7561 4.33767 55.6644 4.334C55.5727 4.32667 55.4902 4.323 55.4169 4.323H53.5249V6.996ZM62.1011 11V3.08H67.2161V4.323H63.4266V6.2755H66.5561V7.5185H63.4266V9.757H67.2161V11H62.1011Z" fill="#7F8A8C"/>
</svg>
