<svg width="19" height="18" viewBox="0 0 19 18" fill="none" xmlns="http://www.w3.org/2000/svg">
<path d="M9.5 9.18751C9.17 9.18751 8.84 9.10501 8.54 8.94751L3.6575 6.31501C3.215 6.07501 2.9375 5.60251 2.9375 5.07751C2.9375 4.55251 3.215 4.08001 3.6575 3.84001L8.54 1.20751C9.14 0.885012 9.86 0.885012 10.4525 1.20751L15.335 3.84001C15.7775 4.08001 16.055 4.55251 16.055 5.07751C16.055 5.60251 15.7775 6.07501 15.335 6.31501L10.4525 8.94751C10.16 9.11251 9.83 9.18751 9.5 9.18751ZM9.5 2.08501C9.3575 2.08501 9.2075 2.12251 9.0725 2.19751L4.1975 4.82251C4.07 4.89001 4.0625 5.03251 4.0625 5.07751C4.0625 5.12251 4.07 5.26501 4.1975 5.32501L9.08 7.95751C9.35 8.10001 9.6575 8.10001 9.9275 7.95751L14.81 5.32501C14.93 5.25751 14.945 5.11501 14.945 5.07751C14.945 5.03251 14.9375 4.89001 14.81 4.83001L9.9275 2.19751C9.7925 2.12251 9.6425 2.08501 9.5 2.08501Z" fill="#7F8A8C"/>
<path d="M7.835 17.04C7.625 17.04 7.4075 16.9875 7.2125 16.89L2.6675 14.625C1.91 14.2425 1.4375 13.4775 1.4375 12.63V8.34001C1.4375 7.85251 1.685 7.41001 2.0975 7.15501C2.5175 6.90001 3.02 6.87751 3.455 7.09501L8 9.36001C8.7575 9.74251 9.23 10.5 9.23 11.355V15.645C9.23 16.1325 8.9825 16.575 8.57 16.83C8.345 16.9725 8.09 17.04 7.835 17.04ZM2.8325 8.07001C2.7725 8.07001 2.72 8.09251 2.69 8.10751C2.645 8.13751 2.5625 8.20501 2.5625 8.34001V12.63C2.5625 13.05 2.795 13.4325 3.17 13.62L7.7075 15.8925C7.8275 15.9525 7.925 15.9075 7.97 15.885C8.015 15.855 8.0975 15.7875 8.0975 15.6525V11.3625C8.0975 10.9425 7.865 10.56 7.49 10.3725L2.9525 8.10001C2.9075 8.07751 2.87 8.07001 2.8325 8.07001Z" fill="#7F8A8C"/>
<path d="M11.165 17.04C10.91 17.04 10.655 16.9725 10.43 16.83C10.0175 16.575 9.76996 16.1325 9.76996 15.645V11.355C9.76996 10.5075 10.2425 9.7425 11 9.36L15.5375 7.0875C15.9725 6.87 16.4825 6.8925 16.895 7.1475C17.3075 7.4025 17.555 7.845 17.555 8.3325V12.6225C17.555 13.47 17.0825 14.235 16.325 14.6175L11.7875 16.89C11.5925 16.995 11.375 17.04 11.165 17.04ZM16.1675 8.07C16.13 8.07 16.0925 8.0775 16.0475 8.1L11.51 10.3725C11.135 10.56 10.9025 10.935 10.9025 11.3625V15.6525C10.9025 15.7875 10.985 15.855 11.03 15.885C11.075 15.915 11.1725 15.9525 11.2925 15.8925L15.83 13.62C16.205 13.4325 16.4375 13.05 16.4375 12.63V8.34C16.4375 8.205 16.355 8.1375 16.31 8.1075C16.28 8.0925 16.2275 8.07 16.1675 8.07Z" fill="#7F8A8C"/>
</svg>
