<svg width="19" height="18" viewBox="0 0 19 18" fill="none" xmlns="http://www.w3.org/2000/svg">
<path d="M3.5 5.25C3.5 4.55109 3.5 4.20163 3.61418 3.92597C3.76642 3.55843 4.05843 3.26642 4.42597 3.11418C4.70163 3 5.05109 3 5.75 3C6.44891 3 6.79837 3 7.07403 3.11418C7.44157 3.26642 7.73358 3.55843 7.88582 3.92597C8 4.20163 8 4.55109 8 5.25C8 5.94891 8 6.29837 7.88582 6.57403C7.73358 6.94157 7.44157 7.23358 7.07403 7.38582C6.79837 7.5 6.44891 7.5 5.75 7.5C5.05109 7.5 4.70163 7.5 4.42597 7.38582C4.05843 7.23358 3.76642 6.94157 3.61418 6.57403C3.5 6.29837 3.5 5.94891 3.5 5.25Z" fill="#7F8A8C"/>
<path d="M11 5.25C11 4.55109 11 4.20163 11.1142 3.92597C11.2664 3.55843 11.5584 3.26642 11.926 3.11418C12.2016 3 12.5511 3 13.25 3C13.9489 3 14.2984 3 14.574 3.11418C14.9416 3.26642 15.2336 3.55843 15.3858 3.92597C15.5 4.20163 15.5 4.55109 15.5 5.25C15.5 5.94891 15.5 6.29837 15.3858 6.57403C15.2336 6.94157 14.9416 7.23358 14.574 7.38582C14.2984 7.5 13.9489 7.5 13.25 7.5C12.5511 7.5 12.2016 7.5 11.926 7.38582C11.5584 7.23358 11.2664 6.94157 11.1142 6.57403C11 6.29837 11 5.94891 11 5.25Z" fill="#7F8A8C"/>
<path d="M3.5 12.75C3.5 12.0511 3.5 11.7016 3.61418 11.426C3.76642 11.0584 4.05843 10.7664 4.42597 10.6142C4.70163 10.5 5.05109 10.5 5.75 10.5C6.44891 10.5 6.79837 10.5 7.07403 10.6142C7.44157 10.7664 7.73358 11.0584 7.88582 11.426C8 11.7016 8 12.0511 8 12.75C8 13.4489 8 13.7984 7.88582 14.074C7.73358 14.4416 7.44157 14.7336 7.07403 14.8858C6.79837 15 6.44891 15 5.75 15C5.05109 15 4.70163 15 4.42597 14.8858C4.05843 14.7336 3.76642 14.4416 3.61418 14.074C3.5 13.7984 3.5 13.4489 3.5 12.75Z" fill="#7F8A8C"/>
<path d="M11 12.75C11 12.0511 11 11.7016 11.1142 11.426C11.2664 11.0584 11.5584 10.7664 11.926 10.6142C12.2016 10.5 12.5511 10.5 13.25 10.5C13.9489 10.5 14.2984 10.5 14.574 10.6142C14.9416 10.7664 15.2336 11.0584 15.3858 11.426C15.5 11.7016 15.5 12.0511 15.5 12.75C15.5 13.4489 15.5 13.7984 15.3858 14.074C15.2336 14.4416 14.9416 14.7336 14.574 14.8858C14.2984 15 13.9489 15 13.25 15C12.5511 15 12.2016 15 11.926 14.8858C11.5584 14.7336 11.2664 14.4416 11.1142 14.074C11 13.7984 11 13.4489 11 12.75Z" fill="#7F8A8C"/>
</svg>
