<svg width="18" height="18" viewBox="0 0 18 18" fill="none" xmlns="http://www.w3.org/2000/svg">
<path d="M3.75 5.25C3.75 4.62868 4.25368 4.125 4.875 4.125C5.49632 4.125 6 4.62868 6 5.25C6 5.87132 5.49632 6.375 4.875 6.375C4.25368 6.375 3.75 5.87132 3.75 5.25ZM4.875 2.625C3.42525 2.625 2.25 3.80025 2.25 5.25C2.25 6.69975 3.42525 7.875 4.875 7.875C6.32475 7.875 7.5 6.69975 7.5 5.25C7.5 3.80025 6.32475 2.625 4.875 2.625ZM9 6H15V4.5H9V6ZM12 12.75C12 12.1287 12.5037 11.625 13.125 11.625C13.7463 11.625 14.25 12.1287 14.25 12.75C14.25 13.3713 13.7463 13.875 13.125 13.875C12.5037 13.875 12 13.3713 12 12.75ZM13.125 10.125C11.6753 10.125 10.5 11.3003 10.5 12.75C10.5 14.1998 11.6753 15.375 13.125 15.375C14.5747 15.375 15.75 14.1998 15.75 12.75C15.75 11.3003 14.5747 10.125 13.125 10.125ZM3 12V13.5H9V12H3Z" fill="#000D0F"/>
</svg>
