<svg width="35" height="34" viewBox="0 0 35 34" fill="none" xmlns="http://www.w3.org/2000/svg">
<circle cx="17.5" cy="17" r="17" fill="#2B2B2B"/>
<rect x="23.2134" y="8.18555" width="3.10233" height="3.10233" fill="#C10104"/>
<path d="M22.5118 14.643V19.7045C22.5118 20.2893 22.9353 20.3094 23.1168 20.3094C23.3789 20.3094 23.8024 20.2893 24.0242 20.2489V22.205C23.4798 22.3058 22.9958 22.4469 22.048 22.4469C20.2332 22.4469 20.0315 21.479 19.9509 21.0757C19.4064 21.6 18.0554 22.5478 14.9298 22.5478C12.147 22.5478 10.5741 21.2975 10.5741 19.2004C10.5741 16.2562 13.5989 15.9941 15.3734 15.8328C19.3661 15.4496 19.7896 15.3085 19.7896 14.4817C19.7896 13.2516 18.378 12.9492 16.7648 12.9492C14.9298 12.9492 13.9417 13.534 13.8408 14.7237H11.1186C11.5219 11.9207 13.5989 11.0536 16.7648 11.0536C22.3505 11.0536 22.5118 13.2516 22.5118 14.643ZM19.7291 17.8493V16.8209C18.9225 17.1637 18.0554 17.2645 16.0792 17.4863C13.982 17.7283 13.4779 18.1921 13.4779 19.0995C13.4779 20.5111 14.7684 20.7732 15.7162 20.7732C17.2084 20.7732 19.7291 20.2086 19.7291 17.8493Z" fill="white"/>
</svg>
