<svg width="25" height="26" viewBox="0 0 25 26" fill="none" xmlns="http://www.w3.org/2000/svg">
<g filter="url(#filter0_d_7_51)">
<path d="M17.75 6.5625C16.1975 6.5625 14.9375 5.3025 14.9375 3.75C14.9375 2.1975 16.1975 0.9375 17.75 0.9375C19.3025 0.9375 20.5625 2.1975 20.5625 3.75C20.5625 5.3025 19.3025 6.5625 17.75 6.5625ZM17.75 2.0625C16.82 2.0625 16.0625 2.82 16.0625 3.75C16.0625 4.68 16.82 5.4375 17.75 5.4375C18.68 5.4375 19.4375 4.68 19.4375 3.75C19.4375 2.82 18.68 2.0625 17.75 2.0625Z" fill="#C10104"/>
<path d="M12.5 17.0625C8.0525 17.0625 4.4375 13.4475 4.4375 9C4.4375 4.5525 8.0525 0.9375 12.5 0.9375C13.0475 0.9375 13.595 0.99 14.1275 1.1025C14.435 1.1625 14.63 1.4625 14.5625 1.77C14.5025 2.0775 14.2025 2.2725 13.9025 2.205C13.445 2.1075 12.9725 2.0625 12.5 2.0625C8.675 2.0625 5.5625 5.175 5.5625 9C5.5625 12.825 8.675 15.9375 12.5 15.9375C16.325 15.9375 19.4375 12.825 19.4375 9C19.4375 8.535 19.3925 8.07 19.3025 7.62C19.2425 7.3125 19.4375 7.02 19.745 6.96C20.0525 6.8925 20.345 7.095 20.405 7.4025C20.51 7.9275 20.5625 8.4675 20.5625 9.0075C20.5625 13.4475 16.9475 17.0625 12.5 17.0625Z" fill="#7F8A8C"/>
</g>
<defs>
<filter id="filter0_d_7_51" x="-0.5" y="0" width="26" height="26" filterUnits="userSpaceOnUse" color-interpolation-filters="sRGB">
<feFlood flood-opacity="0" result="BackgroundImageFix"/>
<feColorMatrix in="SourceAlpha" type="matrix" values="0 0 0 0 0 0 0 0 0 0 0 0 0 0 0 0 0 0 127 0" result="hardAlpha"/>
<feOffset dy="4"/>
<feGaussianBlur stdDeviation="2"/>
<feComposite in2="hardAlpha" operator="out"/>
<feColorMatrix type="matrix" values="0 0 0 0 0 0 0 0 0 0 0 0 0 0 0 0 0 0 0.25 0"/>
<feBlend mode="normal" in2="BackgroundImageFix" result="effect1_dropShadow_7_51"/>
<feBlend mode="normal" in="SourceGraphic" in2="effect1_dropShadow_7_51" result="shape"/>
</filter>
</defs>
</svg>
