<svg width="19" height="18" viewBox="0 0 19 18" fill="none" xmlns="http://www.w3.org/2000/svg">
<path d="M2 7.3125C1.6925 7.3125 1.4375 7.0575 1.4375 6.75V4.875C1.4375 2.7 3.2075 0.9375 5.375 0.9375H7.25C7.5575 0.9375 7.8125 1.1925 7.8125 1.5C7.8125 1.8075 7.5575 2.0625 7.25 2.0625H5.375C3.8225 2.0625 2.5625 3.3225 2.5625 4.875V6.75C2.5625 7.0575 2.3075 7.3125 2 7.3125Z" fill="#7F8A8C"/>
<path d="M17 7.3125C16.6925 7.3125 16.4375 7.0575 16.4375 6.75V4.875C16.4375 3.3225 15.1775 2.0625 13.625 2.0625H11.75C11.4425 2.0625 11.1875 1.8075 11.1875 1.5C11.1875 1.1925 11.4425 0.9375 11.75 0.9375H13.625C15.7925 0.9375 17.5625 2.7 17.5625 4.875V6.75C17.5625 7.0575 17.3075 7.3125 17 7.3125Z" fill="#7F8A8C"/>
<path d="M13.625 17.0625H12.5C12.1925 17.0625 11.9375 16.8075 11.9375 16.5C11.9375 16.1925 12.1925 15.9375 12.5 15.9375H13.625C15.1775 15.9375 16.4375 14.6775 16.4375 13.125V12C16.4375 11.6925 16.6925 11.4375 17 11.4375C17.3075 11.4375 17.5625 11.6925 17.5625 12V13.125C17.5625 15.3 15.7925 17.0625 13.625 17.0625Z" fill="#7F8A8C"/>
<path d="M7.25 17.0625H5.375C3.2075 17.0625 1.4375 15.3 1.4375 13.125V11.25C1.4375 10.9425 1.6925 10.6875 2 10.6875C2.3075 10.6875 2.5625 10.9425 2.5625 11.25V13.125C2.5625 14.6775 3.8225 15.9375 5.375 15.9375H7.25C7.5575 15.9375 7.8125 16.1925 7.8125 16.5C7.8125 16.8075 7.5575 17.0625 7.25 17.0625Z" fill="#7F8A8C"/>
<path d="M7.25 8.4375H5.75C4.6925 8.4375 4.0625 7.8075 4.0625 6.75V5.25C4.0625 4.1925 4.6925 3.5625 5.75 3.5625H7.25C8.3075 3.5625 8.9375 4.1925 8.9375 5.25V6.75C8.9375 7.8075 8.3075 8.4375 7.25 8.4375ZM5.75 4.6875C5.3075 4.6875 5.1875 4.8075 5.1875 5.25V6.75C5.1875 7.1925 5.3075 7.3125 5.75 7.3125H7.25C7.6925 7.3125 7.8125 7.1925 7.8125 6.75V5.25C7.8125 4.8075 7.6925 4.6875 7.25 4.6875H5.75Z" fill="#7F8A8C"/>
<path d="M13.25 8.4375H11.75C10.6925 8.4375 10.0625 7.8075 10.0625 6.75V5.25C10.0625 4.1925 10.6925 3.5625 11.75 3.5625H13.25C14.3075 3.5625 14.9375 4.1925 14.9375 5.25V6.75C14.9375 7.8075 14.3075 8.4375 13.25 8.4375ZM11.75 4.6875C11.3075 4.6875 11.1875 4.8075 11.1875 5.25V6.75C11.1875 7.1925 11.3075 7.3125 11.75 7.3125H13.25C13.6925 7.3125 13.8125 7.1925 13.8125 6.75V5.25C13.8125 4.8075 13.6925 4.6875 13.25 4.6875H11.75Z" fill="#7F8A8C"/>
<path d="M7.25 14.4375H5.75C4.6925 14.4375 4.0625 13.8075 4.0625 12.75V11.25C4.0625 10.1925 4.6925 9.5625 5.75 9.5625H7.25C8.3075 9.5625 8.9375 10.1925 8.9375 11.25V12.75C8.9375 13.8075 8.3075 14.4375 7.25 14.4375ZM5.75 10.6875C5.3075 10.6875 5.1875 10.8075 5.1875 11.25V12.75C5.1875 13.1925 5.3075 13.3125 5.75 13.3125H7.25C7.6925 13.3125 7.8125 13.1925 7.8125 12.75V11.25C7.8125 10.8075 7.6925 10.6875 7.25 10.6875H5.75Z" fill="#7F8A8C"/>
<path d="M13.25 14.4375H11.75C10.6925 14.4375 10.0625 13.8075 10.0625 12.75V11.25C10.0625 10.1925 10.6925 9.5625 11.75 9.5625H13.25C14.3075 9.5625 14.9375 10.1925 14.9375 11.25V12.75C14.9375 13.8075 14.3075 14.4375 13.25 14.4375ZM11.75 10.6875C11.3075 10.6875 11.1875 10.8075 11.1875 11.25V12.75C11.1875 13.1925 11.3075 13.3125 11.75 13.3125H13.25C13.6925 13.3125 13.8125 13.1925 13.8125 12.75V11.25C13.8125 10.8075 13.6925 10.6875 13.25 10.6875H11.75Z" fill="#7F8A8C"/>
</svg>
