<svg width="19" height="18" viewBox="0 0 19 18" fill="none" xmlns="http://www.w3.org/2000/svg">
<path d="M9.5 11.8125C7.9475 11.8125 6.6875 10.5525 6.6875 9C6.6875 7.4475 7.9475 6.1875 9.5 6.1875C11.0525 6.1875 12.3125 7.4475 12.3125 9C12.3125 10.5525 11.0525 11.8125 9.5 11.8125ZM9.5 7.3125C8.57 7.3125 7.8125 8.07 7.8125 9C7.8125 9.93 8.57 10.6875 9.5 10.6875C10.43 10.6875 11.1875 9.93 11.1875 9C11.1875 8.07 10.43 7.3125 9.5 7.3125Z" fill="#7F8A8C"/>
<path d="M11.9075 16.6425C11.75 16.6425 11.5925 16.62 11.435 16.5825C10.97 16.455 10.58 16.1625 10.3325 15.75L10.2425 15.6C9.8 14.835 9.1925 14.835 8.75 15.6L8.6675 15.7425C8.42 16.1625 8.03 16.4625 7.565 16.5825C7.0925 16.71 6.605 16.6425 6.1925 16.395L4.9025 15.6525C4.445 15.39 4.115 14.9625 3.9725 14.445C3.8375 13.9275 3.905 13.395 4.1675 12.9375C4.385 12.555 4.445 12.21 4.3175 11.9925C4.19 11.775 3.8675 11.6475 3.425 11.6475C2.33 11.6475 1.4375 10.755 1.4375 9.66V8.34C1.4375 7.245 2.33 6.3525 3.425 6.3525C3.8675 6.3525 4.19 6.225 4.3175 6.0075C4.445 5.79 4.3925 5.445 4.1675 5.0625C3.905 4.605 3.8375 4.065 3.9725 3.555C4.1075 3.0375 4.4375 2.61 4.9025 2.3475L6.2 1.605C7.0475 1.1025 8.165 1.395 8.675 2.2575L8.765 2.4075C9.2075 3.1725 9.815 3.1725 10.2575 2.4075L10.34 2.265C10.85 1.395 11.9675 1.1025 12.8225 1.6125L14.1125 2.355C14.57 2.6175 14.9 3.045 15.0425 3.5625C15.1775 4.08 15.11 4.6125 14.8475 5.07C14.63 5.4525 14.57 5.7975 14.6975 6.015C14.825 6.2325 15.1475 6.36 15.59 6.36C16.685 6.36 17.5775 7.2525 17.5775 8.3475V9.6675C17.5775 10.7625 16.685 11.655 15.59 11.655C15.1475 11.655 14.825 11.7825 14.6975 12C14.57 12.2175 14.6225 12.5625 14.8475 12.945C15.11 13.4025 15.185 13.9425 15.0425 14.4525C14.9075 14.97 14.5775 15.3975 14.1125 15.66L12.815 16.4025C12.53 16.56 12.2225 16.6425 11.9075 16.6425ZM9.5 13.8675C10.1675 13.8675 10.79 14.2875 11.2175 15.03L11.3 15.1725C11.39 15.33 11.54 15.4425 11.72 15.4875C11.9 15.5325 12.08 15.51 12.23 15.42L13.5275 14.67C13.7225 14.5575 13.8725 14.37 13.9325 14.145C13.9925 13.92 13.9625 13.6875 13.85 13.4925C13.4225 12.7575 13.37 12 13.7 11.4225C14.03 10.845 14.7125 10.515 15.5675 10.515C16.0475 10.515 16.43 10.1325 16.43 9.6525V8.3325C16.43 7.86 16.0475 7.47 15.5675 7.47C14.7125 7.47 14.03 7.14 13.7 6.5625C13.37 5.985 13.4225 5.2275 13.85 4.4925C13.9625 4.2975 13.9925 4.065 13.9325 3.84C13.8725 3.615 13.73 3.435 13.535 3.315L12.2375 2.5725C11.915 2.3775 11.4875 2.49 11.2925 2.82L11.21 2.9625C10.7825 3.705 10.16 4.125 9.4925 4.125C8.825 4.125 8.2025 3.705 7.775 2.9625L7.6925 2.8125C7.505 2.4975 7.085 2.385 6.7625 2.5725L5.465 3.3225C5.27 3.435 5.12 3.6225 5.06 3.8475C5 4.0725 5.03 4.305 5.1425 4.5C5.57 5.235 5.6225 5.9925 5.2925 6.57C4.9625 7.1475 4.28 7.4775 3.425 7.4775C2.945 7.4775 2.5625 7.86 2.5625 8.34V9.66C2.5625 10.1325 2.945 10.5225 3.425 10.5225C4.28 10.5225 4.9625 10.8525 5.2925 11.43C5.6225 12.0075 5.57 12.765 5.1425 13.5C5.03 13.695 5 13.9275 5.06 14.1525C5.12 14.3775 5.2625 14.5575 5.4575 14.6775L6.755 15.42C6.9125 15.5175 7.1 15.54 7.2725 15.495C7.4525 15.45 7.6025 15.33 7.7 15.1725L7.7825 15.03C8.21 14.295 8.8325 13.8675 9.5 13.8675Z" fill="#7F8A8C"/>
</svg>
