<svg width="13" height="13" viewBox="0 0 13 13" fill="none" xmlns="http://www.w3.org/2000/svg">
<path d="M0.5 2.75C0.5 2.05109 0.5 1.70163 0.614181 1.42597C0.766422 1.05843 1.05843 0.766422 1.42597 0.614181C1.70163 0.5 2.05109 0.5 2.75 0.5C3.44891 0.5 3.79837 0.5 4.07403 0.614181C4.44157 0.766422 4.73358 1.05843 4.88582 1.42597C5 1.70163 5 2.05109 5 2.75C5 3.44891 5 3.79837 4.88582 4.07403C4.73358 4.44157 4.44157 4.73358 4.07403 4.88582C3.79837 5 3.44891 5 2.75 5C2.05109 5 1.70163 5 1.42597 4.88582C1.05843 4.73358 0.766422 4.44157 0.614181 4.07403C0.5 3.79837 0.5 3.44891 0.5 2.75Z" fill="#7F8A8C"/>
<path d="M8 2.75C8 2.05109 8 1.70163 8.11418 1.42597C8.26642 1.05843 8.55843 0.766422 8.92597 0.614181C9.20163 0.5 9.55109 0.5 10.25 0.5C10.9489 0.5 11.2984 0.5 11.574 0.614181C11.9416 0.766422 12.2336 1.05843 12.3858 1.42597C12.5 1.70163 12.5 2.05109 12.5 2.75C12.5 3.44891 12.5 3.79837 12.3858 4.07403C12.2336 4.44157 11.9416 4.73358 11.574 4.88582C11.2984 5 10.9489 5 10.25 5C9.55109 5 9.20163 5 8.92597 4.88582C8.55843 4.73358 8.26642 4.44157 8.11418 4.07403C8 3.79837 8 3.44891 8 2.75Z" fill="#7F8A8C"/>
<path d="M0.5 10.25C0.5 9.55109 0.5 9.20163 0.614181 8.92597C0.766422 8.55843 1.05843 8.26642 1.42597 8.11418C1.70163 8 2.05109 8 2.75 8C3.44891 8 3.79837 8 4.07403 8.11418C4.44157 8.26642 4.73358 8.55843 4.88582 8.92597C5 9.20163 5 9.55109 5 10.25C5 10.9489 5 11.2984 4.88582 11.574C4.73358 11.9416 4.44157 12.2336 4.07403 12.3858C3.79837 12.5 3.44891 12.5 2.75 12.5C2.05109 12.5 1.70163 12.5 1.42597 12.3858C1.05843 12.2336 0.766422 11.9416 0.614181 11.574C0.5 11.2984 0.5 10.9489 0.5 10.25Z" fill="#7F8A8C"/>
<path d="M8 10.25C8 9.55109 8 9.20163 8.11418 8.92597C8.26642 8.55843 8.55843 8.26642 8.92597 8.11418C9.20163 8 9.55109 8 10.25 8C10.9489 8 11.2984 8 11.574 8.11418C11.9416 8.26642 12.2336 8.55843 12.3858 8.92597C12.5 9.20163 12.5 9.55109 12.5 10.25C12.5 10.9489 12.5 11.2984 12.3858 11.574C12.2336 11.9416 11.9416 12.2336 11.574 12.3858C11.2984 12.5 10.9489 12.5 10.25 12.5C9.55109 12.5 9.20163 12.5 8.92597 12.3858C8.55843 12.2336 8.26642 11.9416 8.11418 11.574C8 11.2984 8 10.9489 8 10.25Z" fill="#7F8A8C"/>
</svg>
