<svg width="17" height="17" viewBox="0 0 17 17" fill="none" xmlns="http://www.w3.org/2000/svg">
<path d="M13.7 14.1334C14.0447 14.1334 14.3754 13.9964 14.6192 13.7526C14.863 13.5088 15 13.1782 15 12.8334V7.63337C15 7.28859 14.863 6.95793 14.6192 6.71414C14.3754 6.47034 14.0447 6.33337 13.7 6.33337C13.3552 6.33337 13.0245 6.47034 12.7807 6.71414C12.5369 6.95793 12.4 7.28859 12.4 7.63337V12.8334C12.4 13.1782 12.5369 13.5088 12.7807 13.7526C13.0245 13.9964 13.3552 14.1334 13.7 14.1334Z" fill="white"/>
<path d="M3.3 14.1334C3.64478 14.1334 3.97544 13.9964 4.21924 13.7526C4.46304 13.5088 4.6 13.1782 4.6 12.8334V7.63337C4.6 7.28859 4.46304 6.95793 4.21924 6.71414C3.97544 6.47034 3.64478 6.33337 3.3 6.33337C2.95522 6.33337 2.62456 6.47034 2.38076 6.71414C2.13696 6.95793 2 7.28859 2 7.63337V12.8334C2 13.1782 2.13696 13.5088 2.38076 13.7526C2.62456 13.9964 2.95522 14.1334 3.3 14.1334Z" fill="white"/>
<path d="M8.50007 14.1333C8.84485 14.1333 9.17552 13.9964 9.41931 13.7526C9.66311 13.5088 9.80007 13.1781 9.80007 12.8333V3.3C9.80007 2.95522 9.66311 2.62456 9.41931 2.38076C9.17552 2.13696 8.84485 2 8.50007 2C8.15529 2 7.82463 2.13696 7.58083 2.38076C7.33704 2.62456 7.20007 2.95522 7.20007 3.3V12.8333C7.20007 13.1781 7.33704 13.5088 7.58083 13.7526C7.82463 13.9964 8.15529 14.1333 8.50007 14.1333Z" fill="white"/>
</svg>
