<svg width="18" height="18" viewBox="0 0 18 18" fill="none" xmlns="http://www.w3.org/2000/svg">
<path d="M3 5.25C3 4.55109 3 4.20163 3.11418 3.92597C3.26642 3.55843 3.55843 3.26642 3.92597 3.11418C4.20163 3 4.55109 3 5.25 3C5.94891 3 6.29837 3 6.57403 3.11418C6.94157 3.26642 7.23358 3.55843 7.38582 3.92597C7.5 4.20163 7.5 4.55109 7.5 5.25C7.5 5.94891 7.5 6.29837 7.38582 6.57403C7.23358 6.94157 6.94157 7.23358 6.57403 7.38582C6.29837 7.5 5.94891 7.5 5.25 7.5C4.55109 7.5 4.20163 7.5 3.92597 7.38582C3.55843 7.23358 3.26642 6.94157 3.11418 6.57403C3 6.29837 3 5.94891 3 5.25Z" fill="#7F8A8C"/>
<path d="M10.5 5.25C10.5 4.55109 10.5 4.20163 10.6142 3.92597C10.7664 3.55843 11.0584 3.26642 11.426 3.11418C11.7016 3 12.0511 3 12.75 3C13.4489 3 13.7984 3 14.074 3.11418C14.4416 3.26642 14.7336 3.55843 14.8858 3.92597C15 4.20163 15 4.55109 15 5.25C15 5.94891 15 6.29837 14.8858 6.57403C14.7336 6.94157 14.4416 7.23358 14.074 7.38582C13.7984 7.5 13.4489 7.5 12.75 7.5C12.0511 7.5 11.7016 7.5 11.426 7.38582C11.0584 7.23358 10.7664 6.94157 10.6142 6.57403C10.5 6.29837 10.5 5.94891 10.5 5.25Z" fill="#7F8A8C"/>
<path d="M3 12.75C3 12.0511 3 11.7016 3.11418 11.426C3.26642 11.0584 3.55843 10.7664 3.92597 10.6142C4.20163 10.5 4.55109 10.5 5.25 10.5C5.94891 10.5 6.29837 10.5 6.57403 10.6142C6.94157 10.7664 7.23358 11.0584 7.38582 11.426C7.5 11.7016 7.5 12.0511 7.5 12.75C7.5 13.4489 7.5 13.7984 7.38582 14.074C7.23358 14.4416 6.94157 14.7336 6.57403 14.8858C6.29837 15 5.94891 15 5.25 15C4.55109 15 4.20163 15 3.92597 14.8858C3.55843 14.7336 3.26642 14.4416 3.11418 14.074C3 13.7984 3 13.4489 3 12.75Z" fill="#7F8A8C"/>
<path d="M10.5 12.75C10.5 12.0511 10.5 11.7016 10.6142 11.426C10.7664 11.0584 11.0584 10.7664 11.426 10.6142C11.7016 10.5 12.0511 10.5 12.75 10.5C13.4489 10.5 13.7984 10.5 14.074 10.6142C14.4416 10.7664 14.7336 11.0584 14.8858 11.426C15 11.7016 15 12.0511 15 12.75C15 13.4489 15 13.7984 14.8858 14.074C14.7336 14.4416 14.4416 14.7336 14.074 14.8858C13.7984 15 13.4489 15 12.75 15C12.0511 15 11.7016 15 11.426 14.8858C11.0584 14.7336 10.7664 14.4416 10.6142 14.074C10.5 13.7984 10.5 13.4489 10.5 12.75Z" fill="#7F8A8C"/>
</svg>
