<svg width="285" height="49" viewBox="0 0 285 49" fill="none" xmlns="http://www.w3.org/2000/svg">
<path d="M44.3263 12.21C43.6123 12.21 42.9683 12.0887 42.3943 11.846C41.825 11.6033 41.3536 11.258 40.9803 10.81C40.6116 10.3573 40.3713 9.823 40.2593 9.207L41.5473 9.004C41.7106 9.63867 42.049 10.1357 42.5623 10.495C43.0803 10.8497 43.6893 11.027 44.3893 11.027C44.842 11.027 45.2503 10.957 45.6143 10.817C45.983 10.6723 46.2746 10.467 46.4893 10.201C46.704 9.935 46.8113 9.62 46.8113 9.256C46.8113 9.032 46.7716 8.84067 46.6923 8.682C46.6176 8.51867 46.5126 8.381 46.3773 8.269C46.2466 8.15233 46.0973 8.05433 45.9293 7.975C45.7613 7.89567 45.5863 7.83033 45.4043 7.779L42.8353 7.016C42.5553 6.932 42.2846 6.827 42.0233 6.701C41.762 6.57033 41.5286 6.40933 41.3233 6.218C41.118 6.022 40.9546 5.78867 40.8333 5.518C40.712 5.24267 40.6513 4.91833 40.6513 4.545C40.6513 3.94767 40.8053 3.439 41.1133 3.019C41.426 2.59433 41.8483 2.27 42.3803 2.046C42.9123 1.822 43.512 1.71233 44.1793 1.717C44.856 1.72167 45.4603 1.843 45.9923 2.081C46.529 2.31433 46.9723 2.65033 47.3223 3.089C47.677 3.52767 47.915 4.05267 48.0363 4.664L46.7133 4.895C46.6433 4.48433 46.487 4.132 46.2443 3.838C46.0063 3.53933 45.7076 3.31067 45.3483 3.152C44.989 2.98867 44.5946 2.90467 44.1653 2.9C43.7546 2.89533 43.3836 2.96067 43.0523 3.096C42.721 3.23133 42.4573 3.42033 42.2613 3.663C42.0653 3.901 41.9673 4.17633 41.9673 4.489C41.9673 4.797 42.056 5.04667 42.2333 5.238C42.4106 5.42467 42.6276 5.574 42.8843 5.686C43.1456 5.79333 43.4 5.882 43.6473 5.952L45.5653 6.505C45.7846 6.56567 46.0366 6.64967 46.3213 6.757C46.6106 6.86433 46.8906 7.016 47.1613 7.212C47.432 7.40333 47.656 7.66 47.8333 7.982C48.0106 8.29933 48.0993 8.70067 48.0993 9.186C48.0993 9.67133 48.0013 10.103 47.8053 10.481C47.614 10.859 47.3456 11.1763 47.0003 11.433C46.655 11.685 46.2536 11.8763 45.7963 12.007C45.339 12.1423 44.849 12.21 44.3263 12.21ZM51.5767 12.21C51.012 12.21 50.5383 12.1073 50.1557 11.902C49.7777 11.692 49.4907 11.4167 49.2947 11.076C49.1033 10.7353 49.0077 10.362 49.0077 9.956C49.0077 9.55933 49.0823 9.21633 49.2317 8.927C49.3857 8.633 49.6003 8.39033 49.8757 8.199C50.151 8.003 50.48 7.849 50.8627 7.737C51.222 7.639 51.6233 7.555 52.0667 7.485C52.5147 7.41033 52.9673 7.34267 53.4247 7.282C53.882 7.22133 54.309 7.163 54.7057 7.107L54.2577 7.366C54.2717 6.694 54.1363 6.197 53.8517 5.875C53.5717 5.553 53.0863 5.392 52.3957 5.392C51.9383 5.392 51.537 5.497 51.1917 5.707C50.851 5.91233 50.6107 6.24833 50.4707 6.715L49.2877 6.358C49.4697 5.69533 49.822 5.175 50.3447 4.797C50.8673 4.419 51.5557 4.23 52.4097 4.23C53.0957 4.23 53.6837 4.35367 54.1737 4.601C54.6683 4.84367 55.023 5.21233 55.2377 5.707C55.345 5.94033 55.4127 6.19467 55.4407 6.47C55.4687 6.74067 55.4827 7.02533 55.4827 7.324V12H54.3767V10.187L54.6357 10.355C54.351 10.9663 53.952 11.4283 53.4387 11.741C52.93 12.0537 52.3093 12.21 51.5767 12.21ZM51.7657 11.167C52.2137 11.167 52.601 11.0877 52.9277 10.929C53.259 10.7657 53.525 10.5533 53.7257 10.292C53.9263 10.026 54.057 9.73667 54.1177 9.424C54.1877 9.19067 54.225 8.93167 54.2297 8.647C54.239 8.35767 54.2437 8.136 54.2437 7.982L54.6777 8.171C54.2717 8.227 53.8727 8.28067 53.4807 8.332C53.0887 8.38333 52.7177 8.43933 52.3677 8.5C52.0177 8.556 51.7027 8.62367 51.4227 8.703C51.2173 8.76833 51.0237 8.85233 50.8417 8.955C50.6643 9.05767 50.5197 9.19067 50.4077 9.354C50.3003 9.51267 50.2467 9.711 50.2467 9.949C50.2467 10.1543 50.298 10.3503 50.4007 10.537C50.508 10.7237 50.6713 10.8753 50.8907 10.992C51.1147 11.1087 51.4063 11.167 51.7657 11.167ZM58.9332 12L56.1892 4.44H57.4492L59.5702 10.411L61.6842 4.44H62.9512L60.2072 12H58.9332ZM65.8025 12.21C65.2378 12.21 64.7642 12.1073 64.3815 11.902C64.0035 11.692 63.7165 11.4167 63.5205 11.076C63.3292 10.7353 63.2335 10.362 63.2335 9.956C63.2335 9.55933 63.3082 9.21633 63.4575 8.927C63.6115 8.633 63.8262 8.39033 64.1015 8.199C64.3768 8.003 64.7058 7.849 65.0885 7.737C65.4478 7.639 65.8492 7.555 66.2925 7.485C66.7405 7.41033 67.1932 7.34267 67.6505 7.282C68.1078 7.22133 68.5348 7.163 68.9315 7.107L68.4835 7.366C68.4975 6.694 68.3622 6.197 68.0775 5.875C67.7975 5.553 67.3122 5.392 66.6215 5.392C66.1642 5.392 65.7628 5.497 65.4175 5.707C65.0768 5.91233 64.8365 6.24833 64.6965 6.715L63.5135 6.358C63.6955 5.69533 64.0478 5.175 64.5705 4.797C65.0932 4.419 65.7815 4.23 66.6355 4.23C67.3215 4.23 67.9095 4.35367 68.3995 4.601C68.8942 4.84367 69.2488 5.21233 69.4635 5.707C69.5708 5.94033 69.6385 6.19467 69.6665 6.47C69.6945 6.74067 69.7085 7.02533 69.7085 7.324V12H68.6025V10.187L68.8615 10.355C68.5768 10.9663 68.1778 11.4283 67.6645 11.741C67.1558 12.0537 66.5352 12.21 65.8025 12.21ZM65.9915 11.167C66.4395 11.167 66.8268 11.0877 67.1535 10.929C67.4848 10.7657 67.7508 10.5533 67.9515 10.292C68.1522 10.026 68.2828 9.73667 68.3435 9.424C68.4135 9.19067 68.4508 8.93167 68.4555 8.647C68.4648 8.35767 68.4695 8.136 68.4695 7.982L68.9035 8.171C68.4975 8.227 68.0985 8.28067 67.7065 8.332C67.3145 8.38333 66.9435 8.43933 66.5935 8.5C66.2435 8.556 65.9285 8.62367 65.6485 8.703C65.4432 8.76833 65.2495 8.85233 65.0675 8.955C64.8902 9.05767 64.7455 9.19067 64.6335 9.354C64.5262 9.51267 64.4725 9.711 64.4725 9.949C64.4725 10.1543 64.5238 10.3503 64.6265 10.537C64.7338 10.7237 64.8972 10.8753 65.1165 10.992C65.3405 11.1087 65.6322 11.167 65.9915 11.167ZM76.7715 12V8.213C76.7715 7.85367 76.7388 7.50833 76.6735 7.177C76.6128 6.84567 76.5032 6.54933 76.3445 6.288C76.1905 6.022 75.9805 5.812 75.7145 5.658C75.4532 5.504 75.1218 5.427 74.7205 5.427C74.4078 5.427 74.1232 5.48067 73.8665 5.588C73.6145 5.69067 73.3975 5.84933 73.2155 6.064C73.0335 6.27867 72.8912 6.54933 72.7885 6.876C72.6905 7.198 72.6415 7.57833 72.6415 8.017L71.8225 7.765C71.8225 7.03233 71.9532 6.40467 72.2145 5.882C72.4805 5.35467 72.8515 4.951 73.3275 4.671C73.8082 4.38633 74.3728 4.244 75.0215 4.244C75.5115 4.244 75.9292 4.321 76.2745 4.475C76.6198 4.629 76.9068 4.83433 77.1355 5.091C77.3642 5.343 77.5438 5.62767 77.6745 5.945C77.8052 6.25767 77.8962 6.57733 77.9475 6.904C78.0035 7.226 78.0315 7.53167 78.0315 7.821V12H76.7715ZM71.3815 12V4.44H72.5015V6.463H72.6415V12H71.3815ZM83.9324 12C83.4844 12.0887 83.0411 12.1237 82.6024 12.105C82.1684 12.091 81.7811 12.0047 81.4404 11.846C81.0997 11.6827 80.8407 11.4307 80.6634 11.09C80.5141 10.7913 80.4324 10.4903 80.4184 10.187C80.4091 9.879 80.4044 9.53133 80.4044 9.144V2.34H81.6504V9.088C81.6504 9.396 81.6527 9.65967 81.6574 9.879C81.6667 10.0983 81.7157 10.2873 81.8044 10.446C81.9724 10.7447 82.2384 10.9197 82.6024 10.971C82.9711 11.0223 83.4144 11.0083 83.9324 10.929V12ZM78.8714 5.469V4.44H83.9324V5.469H78.8714ZM87.99 12V1.92H94.36V3.103H89.236V6.26H93.52V7.443H89.236V10.817H94.36V12H87.99ZM101.286 12V8.213C101.286 7.85367 101.253 7.50833 101.188 7.177C101.127 6.84567 101.017 6.54933 100.859 6.288C100.705 6.022 100.495 5.812 100.229 5.658C99.9674 5.504 99.6361 5.427 99.2347 5.427C98.9221 5.427 98.6374 5.48067 98.3807 5.588C98.1287 5.69067 97.9117 5.84933 97.7297 6.064C97.5477 6.27867 97.4054 6.54933 97.3027 6.876C97.2047 7.198 97.1557 7.57833 97.1557 8.017L96.3367 7.765C96.3367 7.03233 96.4674 6.40467 96.7287 5.882C96.9947 5.35467 97.3657 4.951 97.8417 4.671C98.3224 4.38633 98.8871 4.244 99.5357 4.244C100.026 4.244 100.443 4.321 100.789 4.475C101.134 4.629 101.421 4.83433 101.65 5.091C101.878 5.343 102.058 5.62767 102.189 5.945C102.319 6.25767 102.41 6.57733 102.462 6.904C102.518 7.226 102.546 7.53167 102.546 7.821V12H101.286ZM95.8957 12V4.44H97.0157V6.463H97.1557V12H95.8957ZM108.447 12C107.999 12.0887 107.555 12.1237 107.117 12.105C106.683 12.091 106.295 12.0047 105.955 11.846C105.614 11.6827 105.355 11.4307 105.178 11.09C105.028 10.7913 104.947 10.4903 104.933 10.187C104.923 9.879 104.919 9.53133 104.919 9.144V2.34H106.165V9.088C106.165 9.396 106.167 9.65967 106.172 9.879C106.181 10.0983 106.23 10.2873 106.319 10.446C106.487 10.7447 106.753 10.9197 107.117 10.971C107.485 11.0223 107.929 11.0083 108.447 10.929V12ZM103.386 5.469V4.44H108.447V5.469H103.386ZM112.803 12.21C112.061 12.21 111.412 12.0467 110.857 11.72C110.306 11.3887 109.877 10.929 109.569 10.341C109.261 9.74833 109.107 9.05767 109.107 8.269C109.107 7.443 109.259 6.729 109.562 6.127C109.865 5.52033 110.288 5.05367 110.829 4.727C111.375 4.39567 112.014 4.23 112.747 4.23C113.508 4.23 114.154 4.405 114.686 4.755C115.223 5.105 115.624 5.60433 115.89 6.253C116.161 6.90167 116.277 7.674 116.24 8.57H114.98V8.122C114.966 7.19333 114.777 6.50033 114.413 6.043C114.049 5.581 113.508 5.35 112.789 5.35C112.019 5.35 111.433 5.59733 111.032 6.092C110.631 6.58667 110.43 7.296 110.43 8.22C110.43 9.11133 110.631 9.802 111.032 10.292C111.433 10.782 112.005 11.027 112.747 11.027C113.246 11.027 113.68 10.9127 114.049 10.684C114.418 10.4553 114.707 10.1263 114.917 9.697L116.114 10.11C115.82 10.7773 115.377 11.2953 114.784 11.664C114.196 12.028 113.536 12.21 112.803 12.21ZM110.01 8.57V7.569H115.596V8.57H110.01ZM117.659 12V4.44H118.772V6.267L118.59 6.029C118.678 5.79567 118.793 5.581 118.933 5.385C119.077 5.189 119.238 5.028 119.416 4.902C119.612 4.74333 119.833 4.622 120.081 4.538C120.328 4.454 120.58 4.405 120.837 4.391C121.093 4.37233 121.334 4.38867 121.558 4.44V5.609C121.296 5.539 121.009 5.52033 120.697 5.553C120.384 5.58567 120.095 5.7 119.829 5.896C119.586 6.06867 119.397 6.27867 119.262 6.526C119.131 6.77333 119.04 7.04167 118.989 7.331C118.937 7.61567 118.912 7.90733 118.912 8.206V12H117.659ZM126.213 12.21C125.504 12.21 124.907 12.035 124.421 11.685C123.936 11.3303 123.567 10.852 123.315 10.25C123.068 9.64333 122.944 8.96433 122.944 8.213C122.944 7.45233 123.068 6.771 123.315 6.169C123.567 5.567 123.936 5.09333 124.421 4.748C124.911 4.40267 125.511 4.23 126.22 4.23C126.92 4.23 127.522 4.405 128.026 4.755C128.535 5.10033 128.925 5.574 129.195 6.176C129.466 6.778 129.601 7.457 129.601 8.213C129.601 8.969 129.466 9.648 129.195 10.25C128.925 10.852 128.535 11.3303 128.026 11.685C127.522 12.035 126.918 12.21 126.213 12.21ZM122.734 15.36V4.44H123.847V10.005H123.987V15.36H122.734ZM126.059 11.069C126.559 11.069 126.972 10.943 127.298 10.691C127.625 10.439 127.87 10.0983 128.033 9.669C128.197 9.235 128.278 8.74967 128.278 8.213C128.278 7.681 128.197 7.20033 128.033 6.771C127.875 6.34167 127.627 6.001 127.291 5.749C126.96 5.497 126.538 5.371 126.024 5.371C125.534 5.371 125.128 5.49233 124.806 5.735C124.484 5.973 124.244 6.30667 124.085 6.736C123.927 7.16067 123.847 7.653 123.847 8.213C123.847 8.76367 123.924 9.256 124.078 9.69C124.237 10.1193 124.48 10.4577 124.806 10.705C125.133 10.9477 125.551 11.069 126.059 11.069ZM130.996 12V4.44H132.109V6.267L131.927 6.029C132.015 5.79567 132.13 5.581 132.27 5.385C132.414 5.189 132.575 5.028 132.753 4.902C132.949 4.74333 133.17 4.622 133.418 4.538C133.665 4.454 133.917 4.405 134.174 4.391C134.43 4.37233 134.671 4.38867 134.895 4.44V5.609C134.633 5.539 134.346 5.52033 134.034 5.553C133.721 5.58567 133.432 5.7 133.166 5.896C132.923 6.06867 132.734 6.27867 132.599 6.526C132.468 6.77333 132.377 7.04167 132.326 7.331C132.274 7.61567 132.249 7.90733 132.249 8.206V12H130.996ZM136.218 3.103V1.815H137.464V3.103H136.218ZM136.218 12V4.44H137.464V12H136.218ZM142.281 12.203C141.38 12.203 140.64 12.007 140.062 11.615C139.488 11.2183 139.135 10.6653 139.005 9.956L140.279 9.753C140.381 10.1637 140.617 10.4903 140.986 10.733C141.354 10.971 141.812 11.09 142.358 11.09C142.876 11.09 143.282 10.9827 143.576 10.768C143.87 10.5533 144.017 10.2617 144.017 9.893C144.017 9.67833 143.968 9.50567 143.87 9.375C143.772 9.23967 143.569 9.11367 143.261 8.997C142.957 8.88033 142.498 8.74033 141.882 8.577C141.214 8.39967 140.689 8.21533 140.307 8.024C139.924 7.83267 139.651 7.611 139.488 7.359C139.324 7.107 139.243 6.80133 139.243 6.442C139.243 5.99867 139.364 5.61133 139.607 5.28C139.849 4.944 140.188 4.685 140.622 4.503C141.06 4.321 141.569 4.23 142.148 4.23C142.722 4.23 143.235 4.321 143.688 4.503C144.14 4.685 144.504 4.944 144.78 5.28C145.06 5.61133 145.225 5.99867 145.277 6.442L144.003 6.673C143.942 6.267 143.746 5.94733 143.415 5.714C143.088 5.48067 142.666 5.357 142.148 5.343C141.658 5.32433 141.259 5.41067 140.951 5.602C140.647 5.79333 140.496 6.05233 140.496 6.379C140.496 6.561 140.552 6.71733 140.664 6.848C140.78 6.97867 140.993 7.10233 141.301 7.219C141.613 7.33567 142.066 7.46867 142.659 7.618C143.326 7.786 143.851 7.97033 144.234 8.171C144.621 8.367 144.896 8.60033 145.06 8.871C145.223 9.137 145.305 9.466 145.305 9.858C145.305 10.586 145.036 11.16 144.5 11.58C143.963 11.9953 143.223 12.203 142.281 12.203ZM149.985 12.21C149.243 12.21 148.594 12.0467 148.039 11.72C147.488 11.3887 147.059 10.929 146.751 10.341C146.443 9.74833 146.289 9.05767 146.289 8.269C146.289 7.443 146.44 6.729 146.744 6.127C147.047 5.52033 147.469 5.05367 148.011 4.727C148.557 4.39567 149.196 4.23 149.929 4.23C150.689 4.23 151.336 4.405 151.868 4.755C152.404 5.105 152.806 5.60433 153.072 6.253C153.342 6.90167 153.459 7.674 153.422 8.57H152.162V8.122C152.148 7.19333 151.959 6.50033 151.595 6.043C151.231 5.581 150.689 5.35 149.971 5.35C149.201 5.35 148.615 5.59733 148.214 6.092C147.812 6.58667 147.612 7.296 147.612 8.22C147.612 9.11133 147.812 9.802 148.214 10.292C148.615 10.782 149.187 11.027 149.929 11.027C150.428 11.027 150.862 10.9127 151.231 10.684C151.599 10.4553 151.889 10.1263 152.099 9.697L153.296 10.11C153.002 10.7773 152.558 11.2953 151.966 11.664C151.378 12.028 150.717 12.21 149.985 12.21ZM147.192 8.57V7.569H152.778V8.57H147.192Z" fill="#7F8A8C"/>
<path d="M11 41.1062L16.6061 35.5001L11 29.894" stroke="#FF0004" stroke-opacity="0.25" stroke-width="1.5" stroke-linecap="round" stroke-linejoin="round"/>
<path d="M16.1212 41.106L21.7273 35.5L16.1212 29.8939" stroke="#FF0004" stroke-opacity="0.65" stroke-width="1.5" stroke-linecap="round" stroke-linejoin="round"/>
<path d="M21.0302 41.106L26.6362 35.5L21.0302 29.8939" stroke="#FF0004" stroke-width="1.5" stroke-linecap="round" stroke-linejoin="round"/>
<path d="M57.728 33.2H53.84C53.48 30.608 51.344 29.072 48.32 29.072C45.008 29.072 42.536 31.28 42.536 35.744C42.536 39.32 45.008 41.792 48.56 41.792C52.304 41.792 53.552 39.248 53.84 37.448H57.728C57.224 40.856 54.992 44.48 47.936 44.48C41.744 44.48 38.792 40.256 38.792 35.432C38.792 30.608 41.624 26.384 48.368 26.384C54.272 26.384 57.344 29.504 57.728 33.2ZM60.2268 44V26.576H63.5388V33.2H63.5868C64.6668 31.832 66.3468 30.944 68.6028 30.944C71.3388 30.944 74.0028 31.928 74.0028 35.36V44H70.6908V36.416C70.6908 35.048 70.2348 33.488 67.4988 33.488C65.7708 33.488 63.5388 34.448 63.5388 37.16V44H60.2268ZM90.3359 35.072V41.096C90.3359 41.792 90.8399 41.816 91.0559 41.816C91.3679 41.816 91.8719 41.792 92.1359 41.744V44.072C91.4879 44.192 90.9119 44.36 89.7839 44.36C87.6239 44.36 87.3839 43.208 87.2879 42.728C86.6399 43.352 85.0319 44.48 81.3119 44.48C77.9999 44.48 76.1279 42.992 76.1279 40.496C76.1279 36.992 79.7279 36.68 81.8399 36.488C86.5919 36.032 87.0959 35.864 87.0959 34.88C87.0959 33.416 85.4159 33.056 83.4959 33.056C81.3119 33.056 80.1359 33.752 80.0159 35.168H76.7759C77.2559 31.832 79.7279 30.8 83.4959 30.8C90.1439 30.8 90.3359 33.416 90.3359 35.072ZM87.0239 38.888V37.664C86.0639 38.072 85.0319 38.192 82.6799 38.456C80.1839 38.744 79.5839 39.296 79.5839 40.376C79.5839 42.056 81.1199 42.368 82.2479 42.368C84.0239 42.368 87.0239 41.696 87.0239 38.888ZM94.6104 40.448V33.68H91.9704V31.28H94.6104V27.344H97.9224V31.28H101.378V33.68H97.9224V39.488C97.9224 40.952 97.9944 41.744 99.1224 41.744C99.9384 41.744 100.706 41.72 101.498 41.696V44.096C100.61 44.216 99.9624 44.288 98.9544 44.288C94.9224 44.288 94.6104 42.848 94.6104 40.448ZM110.792 33.488C107.696 33.488 106.52 35.576 106.52 37.688C106.52 39.848 107.696 41.936 110.792 41.936C113.912 41.936 115.088 39.848 115.088 37.688C115.088 35.576 113.912 33.488 110.792 33.488ZM103.352 44V26.576H106.664V33.104H106.712C107.696 31.568 109.592 30.944 111.584 30.944C116.432 30.944 118.544 34.472 118.544 37.688C118.544 40.952 116.432 44.48 111.584 44.48C108.944 44.48 106.952 43.016 106.712 42.248H106.664V44H103.352ZM123.576 37.64C123.576 39.848 124.776 41.936 127.992 41.936C131.208 41.936 132.408 39.848 132.408 37.64C132.408 35.432 131.208 33.344 127.992 33.344C124.776 33.344 123.576 35.432 123.576 37.64ZM120.12 37.64C120.12 34.136 122.304 30.8 127.992 30.8C133.68 30.8 135.864 34.136 135.864 37.64C135.864 41.144 133.68 44.48 127.992 44.48C122.304 44.48 120.12 41.144 120.12 37.64ZM139.024 40.448V33.68H136.384V31.28H139.024V27.344H142.336V31.28H145.792V33.68H142.336V39.488C142.336 40.952 142.408 41.744 143.536 41.744C144.352 41.744 145.12 41.72 145.912 41.696V44.096C145.024 44.216 144.376 44.288 143.368 44.288C139.336 44.288 139.024 42.848 139.024 40.448ZM161.387 37.064H167.291L164.363 29.84L161.387 37.064ZM154.643 44L162.275 26.864H166.547L174.179 44H170.171L168.371 39.752H160.307L158.531 44H154.643ZM175.305 44V31.28H178.617V33.2H178.665C179.745 31.832 181.425 30.944 183.681 30.944C186.417 30.944 189.081 31.928 189.081 35.36V44H185.769V36.416C185.769 35.048 185.313 33.488 182.577 33.488C180.849 33.488 178.617 34.448 178.617 37.16V44H175.305ZM205.414 35.072V41.096C205.414 41.792 205.918 41.816 206.134 41.816C206.446 41.816 206.95 41.792 207.214 41.744V44.072C206.566 44.192 205.99 44.36 204.862 44.36C202.702 44.36 202.462 43.208 202.366 42.728C201.718 43.352 200.11 44.48 196.39 44.48C193.078 44.48 191.206 42.992 191.206 40.496C191.206 36.992 194.806 36.68 196.918 36.488C201.67 36.032 202.174 35.864 202.174 34.88C202.174 33.416 200.494 33.056 198.574 33.056C196.39 33.056 195.214 33.752 195.094 35.168H191.854C192.334 31.832 194.806 30.8 198.574 30.8C205.222 30.8 205.414 33.416 205.414 35.072ZM202.102 38.888V37.664C201.142 38.072 200.11 38.192 197.758 38.456C195.262 38.744 194.662 39.296 194.662 40.376C194.662 42.056 196.198 42.368 197.326 42.368C199.102 42.368 202.102 41.696 202.102 38.888ZM208.753 44V26.576H212.065V44H208.753ZM219.188 43.784L213.26 31.28H216.86L220.94 40.376L224.924 31.28H228.452L221.516 46.256C220.508 48.44 219.692 48.848 216.932 48.848C216.38 48.848 215.516 48.824 214.868 48.8V46.256C215.132 46.28 215.804 46.304 216.524 46.304C217.412 46.304 218.06 46.112 218.444 45.32L219.188 43.784ZM230.548 40.448V33.68H227.908V31.28H230.548V27.344H233.86V31.28H237.316V33.68H233.86V39.488C233.86 40.952 233.932 41.744 235.06 41.744C235.876 41.744 236.644 41.72 237.436 41.696V44.096C236.548 44.216 235.9 44.288 234.892 44.288C230.86 44.288 230.548 42.848 230.548 40.448ZM239.385 44V31.28H242.697V44H239.385ZM239.385 29.264V26.576H242.697V29.264H239.385ZM259.781 35.744H256.325C256.085 34.424 254.693 33.344 252.797 33.344C249.725 33.344 248.381 35.432 248.381 37.64C248.381 39.848 249.581 41.936 252.437 41.936C255.005 41.936 255.701 40.928 256.397 39.128H259.853C259.085 44.408 253.685 44.48 252.797 44.48C247.109 44.48 244.925 41.144 244.925 37.64C244.925 33.536 247.877 30.8 252.797 30.8C254.717 30.8 259.085 31.448 259.781 35.744ZM261.259 40.016H264.859C264.955 41.936 267.163 42.224 268.363 42.224C270.019 42.224 271.819 41.792 271.819 40.592C271.819 39.608 271.267 39.272 267.691 38.792C263.755 38.264 261.691 37.808 261.691 34.904C261.691 31.28 265.915 30.8 268.051 30.8C270.019 30.8 274.747 31.088 274.939 35.168H271.483C271.219 33.272 269.011 33.056 267.883 33.056C266.011 33.056 265.003 33.848 265.003 34.52C265.003 35.552 265.315 35.72 268.507 36.176C272.682 36.776 275.419 37.184 275.419 40.136C275.419 43.376 272.323 44.48 268.387 44.48C265.675 44.48 261.379 43.904 261.259 40.016Z" fill="#181818"/>
<path d="M278.477 44V40.592H282.221V44H278.477Z" fill="#FF0004"/>
</svg>
