<svg width="16" height="4" viewBox="0 0 16 4" fill="none" xmlns="http://www.w3.org/2000/svg">
<path d="M14.4286 2H14.4393H14.4286ZM8 2H8.01071H8ZM1.57143 2H1.58214H1.57143ZM9.07143 2C9.07143 1.4477 8.59175 1 8 1C7.40825 1 6.92857 1.4477 6.92857 2C6.92857 2.5523 7.40825 3 8 3C8.59175 3 9.07143 2.5523 9.07143 2ZM15.5 2C15.5 1.4477 15.0203 1 14.4286 1C13.8368 1 13.3571 1.4477 13.3571 2C13.3571 2.5523 13.8368 3 14.4286 3C15.0203 3 15.5 2.5523 15.5 2ZM2.64286 2C2.64286 1.4477 2.16316 1 1.57143 1C0.9797 1 0.5 1.4477 0.5 2C0.5 2.5523 0.9797 3 1.57143 3C2.16316 3 2.64286 2.5523 2.64286 2Z" fill="#7F8A8C"/>
<path d="M14.4286 2H14.4393M8 2H8.01071M1.57143 2H1.58214M9.07143 2C9.07143 1.4477 8.59175 1 8 1C7.40825 1 6.92857 1.4477 6.92857 2C6.92857 2.5523 7.40825 3 8 3C8.59175 3 9.07143 2.5523 9.07143 2ZM15.5 2C15.5 1.4477 15.0203 1 14.4286 1C13.8368 1 13.3571 1.4477 13.3571 2C13.3571 2.5523 13.8368 3 14.4286 3C15.0203 3 15.5 2.5523 15.5 2ZM2.64286 2C2.64286 1.4477 2.16316 1 1.57143 1C0.9797 1 0.5 1.4477 0.5 2C0.5 2.5523 0.9797 3 1.57143 3C2.16316 3 2.64286 2.5523 2.64286 2Z" stroke="#7F8A8C" stroke-linecap="round" stroke-linejoin="round"/>
</svg>
