<svg width="18" height="18" viewBox="0 0 18 18" fill="none" xmlns="http://www.w3.org/2000/svg">
<path d="M9 2.0625C3.79725 2.0625 2.0625 3.79725 2.0625 9C2.0625 14.2027 3.79725 15.9375 9 15.9375C14.2027 15.9375 15.9375 14.2027 15.9375 9" stroke="#94A3B8" stroke-width="1.3" stroke-linecap="round" stroke-linejoin="round"/>
<path fill-rule="evenodd" clip-rule="evenodd" d="M14.646 3.22797V3.22797C13.9013 2.56872 12.7635 2.63772 12.1043 3.38247C12.1043 3.38247 8.82753 7.08372 7.69128 8.36847C6.55353 9.65247 7.38753 11.4262 7.38753 11.4262C7.38753 11.4262 9.26553 12.021 10.386 10.755C11.5073 9.48897 14.8005 5.76972 14.8005 5.76972C15.4598 5.02497 15.39 3.88722 14.646 3.22797Z" stroke="#94A3B8" stroke-width="1.3" stroke-linecap="round" stroke-linejoin="round"/>
<path d="M11.2568 4.35059L13.9531 6.73784" stroke="#94A3B8" stroke-width="1.3" stroke-linecap="round" stroke-linejoin="round"/>
</svg>
