<svg width="22" height="22" viewBox="0 0 22 22" fill="none" xmlns="http://www.w3.org/2000/svg">
<path d="M11.0007 2.521C4.64173 2.521 2.52148 4.64125 2.52148 11.0002C2.52148 17.3591 4.64173 19.4793 11.0007 19.4793C17.3596 19.4793 19.4798 17.3591 19.4798 11.0002" stroke="white" stroke-width="1.6" stroke-linecap="round" stroke-linejoin="round"/>
<path fill-rule="evenodd" clip-rule="evenodd" d="M17.9017 3.94525V3.94525C16.9914 3.1395 15.6008 3.22383 14.7951 4.13408C14.7951 4.13408 10.7902 8.65783 9.40143 10.2281C8.01084 11.7974 9.03018 13.9653 9.03018 13.9653C9.03018 13.9653 11.3255 14.6922 12.695 13.1449C14.0654 11.5976 18.0905 7.05183 18.0905 7.05183C18.8963 6.14158 18.811 4.751 17.9017 3.94525Z" stroke="white" stroke-width="1.6" stroke-linecap="round" stroke-linejoin="round"/>
<path d="M13.7588 5.31738L17.0542 8.23513" stroke="white" stroke-width="1.6" stroke-linecap="round" stroke-linejoin="round"/>
</svg>
