<svg width="12" height="11" viewBox="0 0 12 11" fill="none" xmlns="http://www.w3.org/2000/svg">
<path d="M11.565 5.445L8.86 2.65C8.67 2.45 8.35 2.445 8.155 2.64C7.955 2.83 7.95 3.15 8.145 3.345L10.715 5.995H2.5C1.675 5.995 1 5.32 1 4.495V0.5C1 0.225 0.775 0 0.5 0C0.225 0 0 0.225 0 0.5V4.5C0 5.88 1.12 7 2.5 7H10.71L8.14 9.65C7.95 9.85 7.955 10.165 8.15 10.355C8.245 10.45 8.37 10.495 8.5 10.495C8.63 10.495 8.76 10.445 8.86 10.345L11.56 7.555C12.145 6.97 12.145 6.02 11.565 5.44V5.445Z" fill="#7F8A8C"/>
</svg>
