<svg width="13" height="12" viewBox="0 0 13 12" fill="none" xmlns="http://www.w3.org/2000/svg">
<path d="M3.45266 0.345266H12.4296V1.72633H3.45266V0.345266ZM1.0358 2.0716C0.463741 2.0716 0 1.60786 0 1.0358C0 0.463741 0.463741 0 1.0358 0C1.60786 0 2.0716 0.463741 2.0716 1.0358C2.0716 1.60786 1.60786 2.0716 1.0358 2.0716ZM1.0358 6.90533C0.463741 6.90533 0 6.44156 0 5.86953C0 5.29749 0.463741 4.83373 1.0358 4.83373C1.60786 4.83373 2.0716 5.29749 2.0716 5.86953C2.0716 6.44156 1.60786 6.90533 1.0358 6.90533ZM1.0358 11.67C0.463741 11.67 0 11.2062 0 10.6342C0 10.0622 0.463741 9.5984 1.0358 9.5984C1.60786 9.5984 2.0716 10.0622 2.0716 10.6342C2.0716 11.2062 1.60786 11.67 1.0358 11.67ZM3.45266 5.17899H12.4296V6.56006H3.45266V5.17899ZM3.45266 10.0127H12.4296V11.3938H3.45266V10.0127Z" fill="#000D0F"/>
</svg>
