<svg width="13" height="12" viewBox="0 0 13 12" fill="none" xmlns="http://www.w3.org/2000/svg">
<path d="M3.95266 0.345266H12.9296V1.72633H3.95266V0.345266ZM1.5358 2.0716C0.963741 2.0716 0.5 1.60786 0.5 1.0358C0.5 0.463741 0.963741 0 1.5358 0C2.10786 0 2.5716 0.463741 2.5716 1.0358C2.5716 1.60786 2.10786 2.0716 1.5358 2.0716ZM1.5358 6.90533C0.963741 6.90533 0.5 6.44156 0.5 5.86953C0.5 5.29749 0.963741 4.83373 1.5358 4.83373C2.10786 4.83373 2.5716 5.29749 2.5716 5.86953C2.5716 6.44156 2.10786 6.90533 1.5358 6.90533ZM1.5358 11.67C0.963741 11.67 0.5 11.2062 0.5 10.6342C0.5 10.0622 0.963741 9.5984 1.5358 9.5984C2.10786 9.5984 2.5716 10.0622 2.5716 10.6342C2.5716 11.2062 2.10786 11.67 1.5358 11.67ZM3.95266 5.17899H12.9296V6.56006H3.95266V5.17899ZM3.95266 10.0127H12.9296V11.3938H3.95266V10.0127Z" fill="#000D0F"/>
</svg>
