<svg width="38" height="39" viewBox="0 0 38 39" fill="none" xmlns="http://www.w3.org/2000/svg">
<g filter="url(#filter0_d_1142_426)">
<rect x="5" y="3.5" width="28" height="28" rx="5" fill="white" shape-rendering="crispEdges"/>
<rect x="5.5" y="4" width="27" height="27" rx="4.5" stroke="#7F8A8C" stroke-opacity="0.2" shape-rendering="crispEdges"/>
<path d="M16.4527 12.3453H25.4296V13.7263H16.4527V12.3453ZM14.0358 14.0716C13.4637 14.0716 13 13.6079 13 13.0358C13 12.4637 13.4637 12 14.0358 12C14.6079 12 15.0716 12.4637 15.0716 13.0358C15.0716 13.6079 14.6079 14.0716 14.0358 14.0716ZM14.0358 18.9053C13.4637 18.9053 13 18.4416 13 17.8695C13 17.2975 13.4637 16.8337 14.0358 16.8337C14.6079 16.8337 15.0716 17.2975 15.0716 17.8695C15.0716 18.4416 14.6079 18.9053 14.0358 18.9053ZM14.0358 23.67C13.4637 23.67 13 23.2062 13 22.6342C13 22.0622 13.4637 21.5984 14.0358 21.5984C14.6079 21.5984 15.0716 22.0622 15.0716 22.6342C15.0716 23.2062 14.6079 23.67 14.0358 23.67ZM16.4527 17.179H25.4296V18.5601H16.4527V17.179ZM16.4527 22.0127H25.4296V23.3938H16.4527V22.0127Z" fill="#000D0F"/>
</g>
<defs>
<filter id="filter0_d_1142_426" x="0" y="0.5" width="38" height="38" filterUnits="userSpaceOnUse" color-interpolation-filters="sRGB">
<feFlood flood-opacity="0" result="BackgroundImageFix"/>
<feColorMatrix in="SourceAlpha" type="matrix" values="0 0 0 0 0 0 0 0 0 0 0 0 0 0 0 0 0 0 127 0" result="hardAlpha"/>
<feOffset dy="2"/>
<feGaussianBlur stdDeviation="2.5"/>
<feComposite in2="hardAlpha" operator="out"/>
<feColorMatrix type="matrix" values="0 0 0 0 0.117647 0 0 0 0 0.117647 0 0 0 0 0.117647 0 0 0 0.08 0"/>
<feBlend mode="normal" in2="BackgroundImageFix" result="effect1_dropShadow_1142_426"/>
<feBlend mode="normal" in="SourceGraphic" in2="effect1_dropShadow_1142_426" result="shape"/>
</filter>
</defs>
</svg>
