<svg width="229" height="27" viewBox="0 0 229 27" fill="none" xmlns="http://www.w3.org/2000/svg">
<path d="M11.2119 19.1062L16.818 13.5001L11.2119 7.89404" stroke="#FF0004" stroke-opacity="0.25" stroke-width="1.5" stroke-linecap="round" stroke-linejoin="round"/>
<path d="M16.1212 19.106L21.7273 13.5L16.1212 7.89392" stroke="#FF0004" stroke-opacity="0.65" stroke-width="1.5" stroke-linecap="round" stroke-linejoin="round"/>
<path d="M21.0302 19.106L26.6362 13.5L21.0302 7.89392" stroke="#FF0004" stroke-width="1.5" stroke-linecap="round" stroke-linejoin="round"/>
<path d="M39.752 22V4.864H50.6C54.968 4.864 56.384 6.856 56.384 9.52C56.384 11.752 55.16 13.144 53.552 13.648V13.696C55.592 14.128 56.048 15.904 56.048 18.328C56.048 19.144 56.072 21.064 56.768 22H52.88C52.616 21.52 52.448 20.656 52.448 19.408C52.448 16.96 52.112 15.232 49.472 15.232H43.352V22H39.752ZM43.352 12.544H49.568C51.56 12.544 52.64 11.944 52.64 10.024C52.64 8.248 51.464 7.552 49.568 7.552H43.352V12.544ZM72.5703 13.072V19.096C72.5703 19.792 73.0743 19.816 73.2903 19.816C73.6023 19.816 74.1063 19.792 74.3703 19.744V22.072C73.7223 22.192 73.1463 22.36 72.0183 22.36C69.8583 22.36 69.6183 21.208 69.5223 20.728C68.8743 21.352 67.2663 22.48 63.5463 22.48C60.2343 22.48 58.3623 20.992 58.3623 18.496C58.3623 14.992 61.9623 14.68 64.0743 14.488C68.8263 14.032 69.3303 13.864 69.3303 12.88C69.3303 11.416 67.6503 11.056 65.7303 11.056C63.5463 11.056 62.3703 11.752 62.2503 13.168H59.0103C59.4903 9.832 61.9623 8.8 65.7303 8.8C72.3783 8.8 72.5703 11.416 72.5703 13.072ZM69.2583 16.888V15.664C68.2983 16.072 67.2663 16.192 64.9143 16.456C62.4183 16.744 61.8183 17.296 61.8183 18.376C61.8183 20.056 63.3543 20.368 64.4823 20.368C66.2583 20.368 69.2583 19.696 69.2583 16.888ZM83.2528 11.488C80.1568 11.488 78.9808 13.576 78.9808 15.688C78.9808 17.848 80.1568 19.936 83.2528 19.936C86.3728 19.936 87.5488 17.848 87.5488 15.688C87.5488 13.576 86.3728 11.488 83.2528 11.488ZM75.8128 26.848V9.28H79.1248V11.104H79.1728C80.1568 9.568 82.0528 8.944 84.0448 8.944C88.8928 8.944 91.0048 12.472 91.0048 15.688C91.0048 18.952 88.8928 22.48 84.0448 22.48C81.4048 22.48 79.4128 21.016 79.1728 20.248H79.1248V26.848H75.8128ZM93.2291 22V9.28H96.5411V22H93.2291ZM93.2291 7.264V4.576H96.5411V7.264H93.2291ZM102.225 15.688C102.225 17.848 103.401 19.936 106.521 19.936C109.617 19.936 110.793 17.848 110.793 15.688C110.793 13.576 109.617 11.488 106.521 11.488C103.401 11.488 102.225 13.576 102.225 15.688ZM113.961 4.576V22H110.649V20.248H110.601C110.361 21.016 108.369 22.48 105.729 22.48C100.881 22.48 98.7686 18.952 98.7686 15.688C98.7686 12.472 100.881 8.944 105.729 8.944C107.721 8.944 109.617 9.568 110.601 11.104H110.649V4.576H113.961ZM124.574 9.688C124.574 5.872 127.958 4.384 132.134 4.384C134.774 4.384 140.054 4.864 140.51 9.832H136.622C136.502 8.512 135.302 7.072 132.302 7.072C129.902 7.072 128.318 7.816 128.318 9.424C128.318 13.456 141.086 9.592 141.086 16.912C141.086 21.328 136.502 22.48 132.854 22.48C126.686 22.48 124.214 20.056 124.166 16.456H128.054C128.15 18.712 130.022 19.792 132.974 19.792C135.158 19.792 137.198 19.144 137.198 17.272C137.198 13.024 124.574 16.72 124.574 9.688ZM157.915 16.48H145.915C145.987 17.896 146.947 20.08 150.235 20.08C152.419 20.08 153.379 19.312 154.027 18.256H157.627C156.907 19.672 155.179 22.48 150.331 22.48C144.595 22.48 142.459 19.144 142.459 15.76C142.459 11.512 145.603 8.8 150.115 8.8C155.755 8.8 157.915 12.28 157.915 16V16.48ZM145.915 14.368H154.459C154.051 11.824 151.795 11.056 150.163 11.056C148.627 11.056 146.467 11.776 145.915 14.368ZM174.492 13.744H171.036C170.796 12.424 169.404 11.344 167.508 11.344C164.436 11.344 163.092 13.432 163.092 15.64C163.092 17.848 164.292 19.936 167.148 19.936C169.716 19.936 170.412 18.928 171.108 17.128H174.564C173.796 22.408 168.396 22.48 167.508 22.48C161.82 22.48 159.636 19.144 159.636 15.64C159.636 11.536 162.588 8.8 167.508 8.8C169.428 8.8 173.796 9.448 174.492 13.744ZM176.617 17.776V9.28H179.929V16.528C179.929 18.472 180.385 19.936 183.217 19.936C184.681 19.936 187.081 18.976 187.081 16.264V9.28H190.393V22H187.081V20.224H187.033C185.953 21.592 184.273 22.48 182.017 22.48C179.281 22.48 176.617 21.496 176.617 17.776ZM193.071 22V9.28H196.383V11.752H196.431C197.319 10.312 198.687 8.944 201.231 8.944C201.735 8.944 202.119 8.992 202.551 9.064V12.328C201.639 12.04 201.015 12.016 200.439 12.016C198.759 12.016 196.383 12.904 196.383 15.856V22H193.071ZM219.228 16.48H207.228C207.3 17.896 208.26 20.08 211.548 20.08C213.732 20.08 214.692 19.312 215.34 18.256H218.94C218.22 19.672 216.492 22.48 211.644 22.48C205.908 22.48 203.772 19.144 203.772 15.76C203.772 11.512 206.916 8.8 211.428 8.8C217.068 8.8 219.228 12.28 219.228 16V16.48ZM207.228 14.368H215.772C215.364 11.824 213.108 11.056 211.476 11.056C209.94 11.056 207.78 11.776 207.228 14.368Z" fill="#181818"/>
<path d="M222.508 22V18.592H226.252V22H222.508Z" fill="#FF0004"/>
</svg>
