<svg width="285" height="27" viewBox="0 0 285 27" fill="none" xmlns="http://www.w3.org/2000/svg">
<path d="M11 19.1062L16.6061 13.5001L11 7.89404" stroke="#FF0004" stroke-opacity="0.25" stroke-width="1.5" stroke-linecap="round" stroke-linejoin="round"/>
<path d="M16.1212 19.106L21.7273 13.5L16.1212 7.89392" stroke="#FF0004" stroke-opacity="0.65" stroke-width="1.5" stroke-linecap="round" stroke-linejoin="round"/>
<path d="M21.0302 19.106L26.6362 13.5L21.0302 7.89392" stroke="#FF0004" stroke-width="1.5" stroke-linecap="round" stroke-linejoin="round"/>
<path d="M57.728 11.2H53.84C53.48 8.608 51.344 7.072 48.32 7.072C45.008 7.072 42.536 9.28 42.536 13.744C42.536 17.32 45.008 19.792 48.56 19.792C52.304 19.792 53.552 17.248 53.84 15.448H57.728C57.224 18.856 54.992 22.48 47.936 22.48C41.744 22.48 38.792 18.256 38.792 13.432C38.792 8.608 41.624 4.384 48.368 4.384C54.272 4.384 57.344 7.504 57.728 11.2ZM60.2268 22V4.576H63.5388V11.2H63.5868C64.6668 9.832 66.3468 8.944 68.6028 8.944C71.3388 8.944 74.0028 9.928 74.0028 13.36V22H70.6908V14.416C70.6908 13.048 70.2348 11.488 67.4988 11.488C65.7708 11.488 63.5388 12.448 63.5388 15.16V22H60.2268ZM90.3359 13.072V19.096C90.3359 19.792 90.8399 19.816 91.0559 19.816C91.3679 19.816 91.8719 19.792 92.1359 19.744V22.072C91.4879 22.192 90.9119 22.36 89.7839 22.36C87.6239 22.36 87.3839 21.208 87.2879 20.728C86.6399 21.352 85.0319 22.48 81.3119 22.48C77.9999 22.48 76.1279 20.992 76.1279 18.496C76.1279 14.992 79.7279 14.68 81.8399 14.488C86.5919 14.032 87.0959 13.864 87.0959 12.88C87.0959 11.416 85.4159 11.056 83.4959 11.056C81.3119 11.056 80.1359 11.752 80.0159 13.168H76.7759C77.2559 9.832 79.7279 8.8 83.4959 8.8C90.1439 8.8 90.3359 11.416 90.3359 13.072ZM87.0239 16.888V15.664C86.0639 16.072 85.0319 16.192 82.6799 16.456C80.1839 16.744 79.5839 17.296 79.5839 18.376C79.5839 20.056 81.1199 20.368 82.2479 20.368C84.0239 20.368 87.0239 19.696 87.0239 16.888ZM94.6104 18.448V11.68H91.9704V9.28H94.6104V5.344H97.9224V9.28H101.378V11.68H97.9224V17.488C97.9224 18.952 97.9944 19.744 99.1224 19.744C99.9384 19.744 100.706 19.72 101.498 19.696V22.096C100.61 22.216 99.9624 22.288 98.9544 22.288C94.9224 22.288 94.6104 20.848 94.6104 18.448ZM110.792 11.488C107.696 11.488 106.52 13.576 106.52 15.688C106.52 17.848 107.696 19.936 110.792 19.936C113.912 19.936 115.088 17.848 115.088 15.688C115.088 13.576 113.912 11.488 110.792 11.488ZM103.352 22V4.576H106.664V11.104H106.712C107.696 9.568 109.592 8.944 111.584 8.944C116.432 8.944 118.544 12.472 118.544 15.688C118.544 18.952 116.432 22.48 111.584 22.48C108.944 22.48 106.952 21.016 106.712 20.248H106.664V22H103.352ZM123.576 15.64C123.576 17.848 124.776 19.936 127.992 19.936C131.208 19.936 132.408 17.848 132.408 15.64C132.408 13.432 131.208 11.344 127.992 11.344C124.776 11.344 123.576 13.432 123.576 15.64ZM120.12 15.64C120.12 12.136 122.304 8.8 127.992 8.8C133.68 8.8 135.864 12.136 135.864 15.64C135.864 19.144 133.68 22.48 127.992 22.48C122.304 22.48 120.12 19.144 120.12 15.64ZM139.024 18.448V11.68H136.384V9.28H139.024V5.344H142.336V9.28H145.792V11.68H142.336V17.488C142.336 18.952 142.408 19.744 143.536 19.744C144.352 19.744 145.12 19.72 145.912 19.696V22.096C145.024 22.216 144.376 22.288 143.368 22.288C139.336 22.288 139.024 20.848 139.024 18.448ZM161.387 15.064H167.291L164.363 7.84L161.387 15.064ZM154.643 22L162.275 4.864H166.547L174.179 22H170.171L168.371 17.752H160.307L158.531 22H154.643ZM175.305 22V9.28H178.617V11.2H178.665C179.745 9.832 181.425 8.944 183.681 8.944C186.417 8.944 189.081 9.928 189.081 13.36V22H185.769V14.416C185.769 13.048 185.313 11.488 182.577 11.488C180.849 11.488 178.617 12.448 178.617 15.16V22H175.305ZM205.414 13.072V19.096C205.414 19.792 205.918 19.816 206.134 19.816C206.446 19.816 206.95 19.792 207.214 19.744V22.072C206.566 22.192 205.99 22.36 204.862 22.36C202.702 22.36 202.462 21.208 202.366 20.728C201.718 21.352 200.11 22.48 196.39 22.48C193.078 22.48 191.206 20.992 191.206 18.496C191.206 14.992 194.806 14.68 196.918 14.488C201.67 14.032 202.174 13.864 202.174 12.88C202.174 11.416 200.494 11.056 198.574 11.056C196.39 11.056 195.214 11.752 195.094 13.168H191.854C192.334 9.832 194.806 8.8 198.574 8.8C205.222 8.8 205.414 11.416 205.414 13.072ZM202.102 16.888V15.664C201.142 16.072 200.11 16.192 197.758 16.456C195.262 16.744 194.662 17.296 194.662 18.376C194.662 20.056 196.198 20.368 197.326 20.368C199.102 20.368 202.102 19.696 202.102 16.888ZM208.753 22V4.576H212.065V22H208.753ZM219.188 21.784L213.26 9.28H216.86L220.94 18.376L224.924 9.28H228.452L221.516 24.256C220.508 26.44 219.692 26.848 216.932 26.848C216.38 26.848 215.516 26.824 214.868 26.8V24.256C215.132 24.28 215.804 24.304 216.524 24.304C217.412 24.304 218.06 24.112 218.444 23.32L219.188 21.784ZM230.548 18.448V11.68H227.908V9.28H230.548V5.344H233.86V9.28H237.316V11.68H233.86V17.488C233.86 18.952 233.932 19.744 235.06 19.744C235.876 19.744 236.644 19.72 237.436 19.696V22.096C236.548 22.216 235.9 22.288 234.892 22.288C230.86 22.288 230.548 20.848 230.548 18.448ZM239.385 22V9.28H242.697V22H239.385ZM239.385 7.264V4.576H242.697V7.264H239.385ZM259.781 13.744H256.325C256.085 12.424 254.693 11.344 252.797 11.344C249.725 11.344 248.381 13.432 248.381 15.64C248.381 17.848 249.581 19.936 252.437 19.936C255.005 19.936 255.701 18.928 256.397 17.128H259.853C259.085 22.408 253.685 22.48 252.797 22.48C247.109 22.48 244.925 19.144 244.925 15.64C244.925 11.536 247.877 8.8 252.797 8.8C254.717 8.8 259.085 9.448 259.781 13.744ZM261.259 18.016H264.859C264.955 19.936 267.163 20.224 268.363 20.224C270.019 20.224 271.819 19.792 271.819 18.592C271.819 17.608 271.267 17.272 267.691 16.792C263.755 16.264 261.691 15.808 261.691 12.904C261.691 9.28 265.915 8.8 268.051 8.8C270.019 8.8 274.747 9.088 274.939 13.168H271.483C271.219 11.272 269.011 11.056 267.883 11.056C266.011 11.056 265.003 11.848 265.003 12.52C265.003 13.552 265.315 13.72 268.507 14.176C272.682 14.776 275.419 15.184 275.419 18.136C275.419 21.376 272.323 22.48 268.387 22.48C265.675 22.48 261.379 21.904 261.259 18.016Z" fill="#181818"/>
<path d="M278.477 22V18.592H282.221V22H278.477Z" fill="#FF0004"/>
</svg>
