<svg width="232" height="27" viewBox="0 0 232 27" fill="none" xmlns="http://www.w3.org/2000/svg">
<path d="M11.2119 19.1062L16.818 13.5001L11.2119 7.89404" stroke="#FF0004" stroke-opacity="0.25" stroke-width="1.5" stroke-linecap="round" stroke-linejoin="round"/>
<path d="M16.1211 19.1062L21.7272 13.5001L16.1211 7.89404" stroke="#FF0004" stroke-opacity="0.65" stroke-width="1.5" stroke-linecap="round" stroke-linejoin="round"/>
<path d="M21.0303 19.1062L26.6363 13.5001L21.0303 7.89404" stroke="#FF0004" stroke-width="1.5" stroke-linecap="round" stroke-linejoin="round"/>
<path d="M39.752 22V4.864H50.6C54.968 4.864 56.384 6.856 56.384 9.52C56.384 11.752 55.16 13.144 53.552 13.648V13.696C55.592 14.128 56.048 15.904 56.048 18.328C56.048 19.144 56.072 21.064 56.768 22H52.88C52.616 21.52 52.448 20.656 52.448 19.408C52.448 16.96 52.112 15.232 49.472 15.232H43.352V22H39.752ZM43.352 12.544H49.568C51.56 12.544 52.64 11.944 52.64 10.024C52.64 8.248 51.464 7.552 49.568 7.552H43.352V12.544ZM72.5703 13.072V19.096C72.5703 19.792 73.0743 19.816 73.2903 19.816C73.6023 19.816 74.1063 19.792 74.3703 19.744V22.072C73.7223 22.192 73.1463 22.36 72.0183 22.36C69.8583 22.36 69.6183 21.208 69.5223 20.728C68.8743 21.352 67.2663 22.48 63.5463 22.48C60.2343 22.48 58.3623 20.992 58.3623 18.496C58.3623 14.992 61.9623 14.68 64.0743 14.488C68.8263 14.032 69.3303 13.864 69.3303 12.88C69.3303 11.416 67.6503 11.056 65.7303 11.056C63.5463 11.056 62.3703 11.752 62.2503 13.168H59.0103C59.4903 9.832 61.9623 8.8 65.7303 8.8C72.3783 8.8 72.5703 11.416 72.5703 13.072ZM69.2583 16.888V15.664C68.2983 16.072 67.2663 16.192 64.9143 16.456C62.4183 16.744 61.8183 17.296 61.8183 18.376C61.8183 20.056 63.3543 20.368 64.4823 20.368C66.2583 20.368 69.2583 19.696 69.2583 16.888ZM83.2528 11.488C80.1568 11.488 78.9808 13.576 78.9808 15.688C78.9808 17.848 80.1568 19.936 83.2528 19.936C86.3728 19.936 87.5488 17.848 87.5488 15.688C87.5488 13.576 86.3728 11.488 83.2528 11.488ZM75.8128 26.848V9.28H79.1248V11.104H79.1728C80.1568 9.568 82.0528 8.944 84.0448 8.944C88.8928 8.944 91.0048 12.472 91.0048 15.688C91.0048 18.952 88.8928 22.48 84.0448 22.48C81.4048 22.48 79.4128 21.016 79.1728 20.248H79.1248V26.848H75.8128ZM93.2291 22V9.28H96.5411V22H93.2291ZM93.2291 7.264V4.576H96.5411V7.264H93.2291ZM102.225 15.688C102.225 17.848 103.401 19.936 106.521 19.936C109.617 19.936 110.793 17.848 110.793 15.688C110.793 13.576 109.617 11.488 106.521 11.488C103.401 11.488 102.225 13.576 102.225 15.688ZM113.961 4.576V22H110.649V20.248H110.601C110.361 21.016 108.369 22.48 105.729 22.48C100.881 22.48 98.7686 18.952 98.7686 15.688C98.7686 12.472 100.881 8.944 105.729 8.944C107.721 8.944 109.617 9.568 110.601 11.104H110.649V4.576H113.961ZM143.75 12.592V22H141.638L141.134 19.768C139.742 21.448 137.294 22.48 134.606 22.48C127.358 22.48 124.526 18.256 124.526 13.432C124.526 8.608 127.526 4.384 134.51 4.384C139.718 4.384 143.054 7.024 143.438 10.384H139.55C138.902 8.056 136.742 7.072 134.414 7.072C129.974 7.072 128.27 9.784 128.27 13.552C128.27 18.112 131.198 19.792 134.222 19.792C137.894 19.792 139.574 18.112 140.15 15.28H135.302V12.592H143.75ZM149.756 15.64C149.756 17.848 150.956 19.936 154.172 19.936C157.388 19.936 158.588 17.848 158.588 15.64C158.588 13.432 157.388 11.344 154.172 11.344C150.956 11.344 149.756 13.432 149.756 15.64ZM146.3 15.64C146.3 12.136 148.484 8.8 154.172 8.8C159.86 8.8 162.044 12.136 162.044 15.64C162.044 19.144 159.86 22.48 154.172 22.48C148.484 22.48 146.3 19.144 146.3 15.64ZM168.612 22L162.804 9.28H166.548L170.34 18.736L174.276 9.28H178.02L172.212 22H168.612ZM194.337 16.48H182.337C182.409 17.896 183.369 20.08 186.657 20.08C188.841 20.08 189.801 19.312 190.449 18.256H194.049C193.329 19.672 191.601 22.48 186.753 22.48C181.017 22.48 178.881 19.144 178.881 15.76C178.881 11.512 182.025 8.8 186.537 8.8C192.177 8.8 194.337 12.28 194.337 16V16.48ZM182.337 14.368H190.881C190.473 11.824 188.217 11.056 186.585 11.056C185.049 11.056 182.889 11.776 182.337 14.368ZM196.61 22V9.28H199.922V11.752H199.97C200.858 10.312 202.226 8.944 204.77 8.944C205.274 8.944 205.658 8.992 206.09 9.064V12.328C205.178 12.04 204.554 12.016 203.978 12.016C202.298 12.016 199.922 12.904 199.922 15.856V22H196.61ZM207.719 22V9.28H211.031V11.2H211.079C212.159 9.832 213.839 8.944 216.095 8.944C218.831 8.944 221.495 9.928 221.495 13.36V22H218.183V14.416C218.183 13.048 217.727 11.488 214.991 11.488C213.263 11.488 211.031 12.448 211.031 15.16V22H207.719Z" fill="#181818"/>
<path d="M225.18 22V18.592H228.924V22H225.18Z" fill="#FF0004"/>
</svg>
