<svg width="231" height="27" viewBox="0 0 231 27" fill="none" xmlns="http://www.w3.org/2000/svg">
<path d="M11.2119 19.1062L16.818 13.5001L11.2119 7.89404" stroke="#FF0004" stroke-opacity="0.25" stroke-width="1.5" stroke-linecap="round" stroke-linejoin="round"/>
<path d="M16.1211 19.1062L21.7272 13.5001L16.1211 7.89404" stroke="#FF0004" stroke-opacity="0.65" stroke-width="1.5" stroke-linecap="round" stroke-linejoin="round"/>
<path d="M21.0303 19.1062L26.6363 13.5001L21.0303 7.89404" stroke="#FF0004" stroke-width="1.5" stroke-linecap="round" stroke-linejoin="round"/>
<path d="M39.752 22V4.864H50.6C54.968 4.864 56.384 6.856 56.384 9.52C56.384 11.752 55.16 13.144 53.552 13.648V13.696C55.592 14.128 56.048 15.904 56.048 18.328C56.048 19.144 56.072 21.064 56.768 22H52.88C52.616 21.52 52.448 20.656 52.448 19.408C52.448 16.96 52.112 15.232 49.472 15.232H43.352V22H39.752ZM43.352 12.544H49.568C51.56 12.544 52.64 11.944 52.64 10.024C52.64 8.248 51.464 7.552 49.568 7.552H43.352V12.544ZM72.5703 13.072V19.096C72.5703 19.792 73.0743 19.816 73.2903 19.816C73.6023 19.816 74.1063 19.792 74.3703 19.744V22.072C73.7223 22.192 73.1463 22.36 72.0183 22.36C69.8583 22.36 69.6183 21.208 69.5223 20.728C68.8743 21.352 67.2663 22.48 63.5463 22.48C60.2343 22.48 58.3623 20.992 58.3623 18.496C58.3623 14.992 61.9623 14.68 64.0743 14.488C68.8263 14.032 69.3303 13.864 69.3303 12.88C69.3303 11.416 67.6503 11.056 65.7303 11.056C63.5463 11.056 62.3703 11.752 62.2503 13.168H59.0103C59.4903 9.832 61.9623 8.8 65.7303 8.8C72.3783 8.8 72.5703 11.416 72.5703 13.072ZM69.2583 16.888V15.664C68.2983 16.072 67.2663 16.192 64.9143 16.456C62.4183 16.744 61.8183 17.296 61.8183 18.376C61.8183 20.056 63.3543 20.368 64.4823 20.368C66.2583 20.368 69.2583 19.696 69.2583 16.888ZM83.2528 11.488C80.1568 11.488 78.9808 13.576 78.9808 15.688C78.9808 17.848 80.1568 19.936 83.2528 19.936C86.3728 19.936 87.5488 17.848 87.5488 15.688C87.5488 13.576 86.3728 11.488 83.2528 11.488ZM75.8128 26.848V9.28H79.1248V11.104H79.1728C80.1568 9.568 82.0528 8.944 84.0448 8.944C88.8928 8.944 91.0048 12.472 91.0048 15.688C91.0048 18.952 88.8928 22.48 84.0448 22.48C81.4048 22.48 79.4128 21.016 79.1728 20.248H79.1248V26.848H75.8128ZM93.2291 22V9.28H96.5411V22H93.2291ZM93.2291 7.264V4.576H96.5411V7.264H93.2291ZM102.225 15.688C102.225 17.848 103.401 19.936 106.521 19.936C109.617 19.936 110.793 17.848 110.793 15.688C110.793 13.576 109.617 11.488 106.521 11.488C103.401 11.488 102.225 13.576 102.225 15.688ZM113.961 4.576V22H110.649V20.248H110.601C110.361 21.016 108.369 22.48 105.729 22.48C100.881 22.48 98.7686 18.952 98.7686 15.688C98.7686 12.472 100.881 8.944 105.729 8.944C107.721 8.944 109.617 9.568 110.601 11.104H110.649V4.576H113.961ZM130.262 15.064H136.166L133.238 7.84L130.262 15.064ZM123.518 22L131.15 4.864H135.422L143.054 22H139.046L137.246 17.752H129.182L127.406 22H123.518ZM143.532 18.016H147.132C147.228 19.936 149.436 20.224 150.636 20.224C152.292 20.224 154.092 19.792 154.092 18.592C154.092 17.608 153.54 17.272 149.964 16.792C146.028 16.264 143.964 15.808 143.964 12.904C143.964 9.28 148.188 8.8 150.324 8.8C152.292 8.8 157.02 9.088 157.212 13.168H153.756C153.492 11.272 151.284 11.056 150.156 11.056C148.284 11.056 147.276 11.848 147.276 12.52C147.276 13.552 147.588 13.72 150.78 14.176C154.956 14.776 157.692 15.184 157.692 18.136C157.692 21.376 154.596 22.48 150.66 22.48C147.948 22.48 143.652 21.904 143.532 18.016ZM159.094 18.016H162.694C162.79 19.936 164.998 20.224 166.198 20.224C167.854 20.224 169.654 19.792 169.654 18.592C169.654 17.608 169.102 17.272 165.526 16.792C161.59 16.264 159.526 15.808 159.526 12.904C159.526 9.28 163.75 8.8 165.886 8.8C167.854 8.8 172.582 9.088 172.774 13.168H169.318C169.054 11.272 166.846 11.056 165.718 11.056C163.846 11.056 162.838 11.848 162.838 12.52C162.838 13.552 163.15 13.72 166.342 14.176C170.518 14.776 173.254 15.184 173.254 18.136C173.254 21.376 170.158 22.48 166.222 22.48C163.51 22.48 159.214 21.904 159.094 18.016ZM190.353 16.48H178.353C178.425 17.896 179.385 20.08 182.673 20.08C184.857 20.08 185.817 19.312 186.465 18.256H190.065C189.345 19.672 187.617 22.48 182.769 22.48C177.033 22.48 174.897 19.144 174.897 15.76C174.897 11.512 178.041 8.8 182.553 8.8C188.193 8.8 190.353 12.28 190.353 16V16.48ZM178.353 14.368H186.897C186.489 11.824 184.233 11.056 182.601 11.056C181.065 11.056 178.905 11.776 178.353 14.368ZM191.977 18.016H195.577C195.673 19.936 197.881 20.224 199.081 20.224C200.737 20.224 202.537 19.792 202.537 18.592C202.537 17.608 201.985 17.272 198.409 16.792C194.473 16.264 192.409 15.808 192.409 12.904C192.409 9.28 196.633 8.8 198.769 8.8C200.737 8.8 205.465 9.088 205.657 13.168H202.201C201.937 11.272 199.729 11.056 198.601 11.056C196.729 11.056 195.721 11.848 195.721 12.52C195.721 13.552 196.033 13.72 199.225 14.176C203.401 14.776 206.137 15.184 206.137 18.136C206.137 21.376 203.041 22.48 199.105 22.48C196.393 22.48 192.097 21.904 191.977 18.016ZM207.54 18.016H211.14C211.236 19.936 213.444 20.224 214.644 20.224C216.3 20.224 218.1 19.792 218.1 18.592C218.1 17.608 217.548 17.272 213.972 16.792C210.036 16.264 207.972 15.808 207.972 12.904C207.972 9.28 212.196 8.8 214.332 8.8C216.3 8.8 221.028 9.088 221.22 13.168H217.764C217.5 11.272 215.292 11.056 214.164 11.056C212.292 11.056 211.284 11.848 211.284 12.52C211.284 13.552 211.596 13.72 214.788 14.176C218.964 14.776 221.7 15.184 221.7 18.136C221.7 21.376 218.604 22.48 214.668 22.48C211.956 22.48 207.66 21.904 207.54 18.016Z" fill="#181818"/>
<path d="M224.758 22V18.592H228.502V22H224.758Z" fill="#FF0004"/>
</svg>
