<svg width="18" height="18" viewBox="0 0 18 18" fill="none" xmlns="http://www.w3.org/2000/svg">
<path fill-rule="evenodd" clip-rule="evenodd" d="M8.45627 2.03552C9.29946 2.03552 10.1344 2.2016 10.9134 2.52427C11.6924 2.84695 12.4002 3.31989 12.9964 3.91612C13.5927 4.51234 14.0656 5.22016 14.3883 5.99916C14.7109 6.77816 14.877 7.61309 14.877 8.45627C14.877 9.29946 14.7109 10.1344 14.3883 10.9134C14.0656 11.6924 13.5927 12.4002 12.9964 12.9964C12.4002 13.5927 11.6924 14.0656 10.9134 14.3883C10.1344 14.7109 9.29946 14.877 8.45627 14.877C6.75338 14.877 5.12024 14.2006 3.91612 12.9964C2.71199 11.7923 2.03552 10.1592 2.03552 8.45627C2.03552 6.75338 2.71199 5.12024 3.91612 3.91612C5.12024 2.71199 6.75338 2.03552 8.45627 2.03552V2.03552Z" stroke="#94A3B8" stroke-width="1.5" stroke-linecap="round" stroke-linejoin="round"/>
<path fill-rule="evenodd" clip-rule="evenodd" d="M14.9243 13.866C15.205 13.8661 15.4741 13.9777 15.6725 14.1762C15.8709 14.3748 15.9823 14.644 15.9822 14.9247C15.9821 15.2053 15.8705 15.4744 15.6719 15.6728C15.4734 15.8712 15.2042 15.9826 14.9235 15.9825C14.6429 15.9824 14.3737 15.8708 14.1754 15.6723C13.977 15.4738 13.8656 15.2046 13.8657 14.9239C13.8658 14.6432 13.9774 14.3741 14.1759 14.1757C14.3744 13.9773 14.6436 13.8659 14.9243 13.866V13.866Z" stroke="#94A3B8" stroke-width="1.5" stroke-linecap="round" stroke-linejoin="round"/>
</svg>
