<svg width="17" height="17" viewBox="0 0 17 17" fill="none" xmlns="http://www.w3.org/2000/svg">
<path d="M16.2817 7.42827L13.0475 6.0966L15.4657 2.46993C15.8709 1.85652 15.1427 1.12835 14.5293 1.53352L10.8991 3.94256L9.57168 0.716809C9.39177 0.281184 8.97031 -0.000732422 8.49927 -0.000732422C8.02823 -0.000732422 7.60677 0.280476 7.42685 0.716809L6.09943 3.94185L2.46993 1.53352C1.85652 1.12835 1.12835 1.85581 1.53352 2.46993L3.95177 6.0966L0.718226 7.42827C0.281893 7.60748 -0.000732422 8.02823 -0.000732422 8.49998C-0.000732422 8.97173 0.281184 9.39248 0.717518 9.57168L3.94681 10.9012L1.53352 14.5208C1.12835 15.1342 1.85652 15.8624 2.46993 15.4572L6.09731 13.0503L7.42756 16.2831C7.60748 16.7188 8.02894 17.0007 8.49998 17.0007C8.97102 17.0007 9.39248 16.7195 9.57239 16.2831L10.9026 13.051L14.53 15.4579C15.1434 15.8631 15.8716 15.1356 15.4664 14.5215L13.0531 10.9019L16.2817 9.57239C16.7181 9.39318 17.0007 8.97243 17.0007 8.50069C17.0007 8.02894 16.7188 7.60818 16.2824 7.42898L16.2817 7.42827ZM10.7164 10.3317C10.5421 10.404 10.4033 10.5421 10.331 10.7171L8.49998 15.1654L6.66893 10.7171C6.59668 10.5421 6.45785 10.404 6.2836 10.3317L1.83598 8.50069L6.2836 6.66964C6.45785 6.59739 6.59668 6.45927 6.66893 6.28431L8.49998 1.83598L10.331 6.28431C10.4033 6.45927 10.5421 6.59739 10.7164 6.66964L15.164 8.50069L10.7164 10.3317Z" fill="white"/>
</svg>
