<svg width="299" height="28" viewBox="0 0 299 28" fill="none" xmlns="http://www.w3.org/2000/svg">
<rect width="297" height="27" transform="translate(2)" fill="white"/>
<path d="M11.2119 19.1062L16.818 13.5001L11.2119 7.89404" stroke="#FF0004" stroke-opacity="0.25" stroke-width="1.5" stroke-linecap="round" stroke-linejoin="round"/>
<path d="M16.1212 19.106L21.7273 13.5L16.1212 7.89392" stroke="#FF0004" stroke-opacity="0.65" stroke-width="1.5" stroke-linecap="round" stroke-linejoin="round"/>
<path d="M21.0302 19.106L26.6362 13.5L21.0302 7.89392" stroke="#FF0004" stroke-width="1.5" stroke-linecap="round" stroke-linejoin="round"/>
<path d="M44.528 15.064H50.432L47.504 7.84L44.528 15.064ZM37.784 22L45.416 4.864H49.688L57.32 22H53.312L51.512 17.752H43.448L41.672 22H37.784ZM58.8536 22V4.864H62.4536V22H58.8536ZM79.1686 15.064H85.0726L82.1446 7.84L79.1686 15.064ZM72.4246 22L80.0566 4.864H84.3286L91.9606 22H87.9526L86.1526 17.752H78.0886L76.3126 22H72.4246ZM95.8942 15.376C95.8942 17.248 97.0222 19.312 100.502 19.312C103.022 19.312 104.774 17.68 104.774 15.328C104.774 12.28 101.918 11.488 100.214 11.488C97.7422 11.488 95.8942 13.096 95.8942 15.376ZM104.774 9.232H108.086V21.568C108.086 24.592 106.142 27.28 100.526 27.28C96.5902 27.28 93.3502 26.416 93.0622 23.128H96.5182C96.8542 24.76 98.4142 25.024 100.43 25.024C104.222 25.024 104.774 23.008 104.774 21.352V19.816H104.702C103.118 21.328 101.462 21.856 99.5182 21.856C96.1582 21.856 92.4382 20.152 92.4382 15.424C92.4382 12.16 94.5982 8.944 99.4942 8.944C102.062 8.944 103.958 9.76 104.726 11.104H104.774V9.232ZM125.923 16.48H113.923C113.995 17.896 114.955 20.08 118.243 20.08C120.427 20.08 121.387 19.312 122.035 18.256H125.635C124.915 19.672 123.187 22.48 118.339 22.48C112.603 22.48 110.467 19.144 110.467 15.76C110.467 11.512 113.611 8.8 118.123 8.8C123.763 8.8 125.923 12.28 125.923 16V16.48ZM113.923 14.368H122.467C122.059 11.824 119.803 11.056 118.171 11.056C116.635 11.056 114.475 11.776 113.923 14.368ZM128.196 22V9.28H131.508V11.2H131.556C132.636 9.832 134.316 8.944 136.572 8.944C139.308 8.944 141.972 9.928 141.972 13.36V22H138.66V14.416C138.66 13.048 138.204 11.488 135.468 11.488C133.74 11.488 131.508 12.448 131.508 15.16V22H128.196ZM145.681 18.448V11.68H143.041V9.28H145.681V5.344H148.993V9.28H152.449V11.68H148.993V17.488C148.993 18.952 149.065 19.744 150.193 19.744C151.009 19.744 151.777 19.72 152.569 19.696V22.096C151.681 22.216 151.033 22.288 150.025 22.288C145.993 22.288 145.681 20.848 145.681 18.448ZM168.044 15.064H173.948L171.02 7.84L168.044 15.064ZM161.3 22L168.932 4.864H173.204L180.836 22H176.828L175.028 17.752H166.964L165.188 22H161.3ZM181.961 22V9.28H185.273V11.2H185.321C186.401 9.832 188.081 8.944 190.337 8.944C193.073 8.944 195.737 9.928 195.737 13.36V22H192.425V14.416C192.425 13.048 191.969 11.488 189.233 11.488C187.505 11.488 185.273 12.448 185.273 15.16V22H181.961ZM212.07 13.072V19.096C212.07 19.792 212.574 19.816 212.79 19.816C213.102 19.816 213.606 19.792 213.87 19.744V22.072C213.222 22.192 212.646 22.36 211.518 22.36C209.358 22.36 209.118 21.208 209.022 20.728C208.374 21.352 206.766 22.48 203.046 22.48C199.734 22.48 197.862 20.992 197.862 18.496C197.862 14.992 201.462 14.68 203.574 14.488C208.326 14.032 208.83 13.864 208.83 12.88C208.83 11.416 207.15 11.056 205.23 11.056C203.046 11.056 201.87 11.752 201.75 13.168H198.51C198.99 9.832 201.462 8.8 205.23 8.8C211.878 8.8 212.07 11.416 212.07 13.072ZM208.758 16.888V15.664C207.798 16.072 206.766 16.192 204.414 16.456C201.918 16.744 201.318 17.296 201.318 18.376C201.318 20.056 202.854 20.368 203.982 20.368C205.758 20.368 208.758 19.696 208.758 16.888ZM215.409 22V4.576H218.721V22H215.409ZM225.844 21.784L219.916 9.28H223.516L227.596 18.376L231.58 9.28H235.108L228.172 24.256C227.164 26.44 226.348 26.848 223.588 26.848C223.036 26.848 222.172 26.824 221.524 26.8V24.256C221.788 24.28 222.46 24.304 223.18 24.304C224.068 24.304 224.716 24.112 225.1 23.32L225.844 21.784ZM237.204 18.448V11.68H234.564V9.28H237.204V5.344H240.516V9.28H243.972V11.68H240.516V17.488C240.516 18.952 240.588 19.744 241.716 19.744C242.532 19.744 243.3 19.72 244.092 19.696V22.096C243.204 22.216 242.556 22.288 241.548 22.288C237.516 22.288 237.204 20.848 237.204 18.448ZM246.042 22V9.28H249.354V22H246.042ZM246.042 7.264V4.576H249.354V7.264H246.042ZM266.437 13.744H262.981C262.741 12.424 261.349 11.344 259.453 11.344C256.381 11.344 255.037 13.432 255.037 15.64C255.037 17.848 256.237 19.936 259.093 19.936C261.661 19.936 262.357 18.928 263.053 17.128H266.509C265.741 22.408 260.341 22.48 259.453 22.48C253.765 22.48 251.581 19.144 251.581 15.64C251.581 11.536 254.533 8.8 259.453 8.8C261.373 8.8 265.741 9.448 266.437 13.744ZM267.915 18.016H271.515C271.611 19.936 273.819 20.224 275.019 20.224C276.675 20.224 278.475 19.792 278.475 18.592C278.475 17.608 277.923 17.272 274.347 16.792C270.411 16.264 268.347 15.808 268.347 12.904C268.347 9.28 272.571 8.8 274.707 8.8C276.675 8.8 281.403 9.088 281.595 13.168H278.139C277.875 11.272 275.667 11.056 274.539 11.056C272.667 11.056 271.659 11.848 271.659 12.52C271.659 13.552 271.971 13.72 275.163 14.176C279.339 14.776 282.075 15.184 282.075 18.136C282.075 21.376 278.979 22.48 275.043 22.48C272.331 22.48 268.035 21.904 267.915 18.016Z" fill="#181818"/>
<path d="M285.133 22V18.592H288.877V22H285.133Z" fill="#FF0004"/>
</svg>
